<?xml version="1.0" encoding="utf-8"?>
<!DOCTYPE svg PUBLIC "-//W3C//DTD SVG 1.1//EN" "http://www.w3.org/Graphics/SVG/1.1/DTD/svg11.dtd">
<svg xmlns="http://www.w3.org/2000/svg" xmlns:xlink="http://www.w3.org/1999/xlink" version="1.1" baseProfile="full" width="1133.85" height="1133.85" viewBox="0 0 1133.85 1133.85" enable-background="new 0 0 1133.85 1133.85" xml:space="preserve">
	<path fill="#B2B2B2" fill-opacity="1" fill-rule="evenodd" stroke-linejoin="round" d="M 375.737,857.587L 374.906,849.987L 882.069,834.427L 882.842,841.427L 375.737,857.587 Z "/>
	<linearGradient id="SVGID_Fill1_" gradientUnits="objectBoundingBox" x1="0.599115" y1="-0.187531" x2="1.21593" y2="-0.187531" gradientTransform="rotate(139.163071 0.599115 -0.187531)">
		<stop offset="0" stop-color="#B9BABA" stop-opacity="1"/>
		<stop offset="1" stop-color="#EDEDED" stop-opacity="1"/>
	</linearGradient>
	<path fill="url(#SVGID_Fill1_)" fill-rule="evenodd" stroke-linejoin="round" d="M 225.283,809.533L 372.981,852.692L 378.62,797.853L 225.283,809.533 Z "/>
	<linearGradient id="SVGID_Fill2_" gradientUnits="objectBoundingBox" x1="0.265144" y1="0.466103" x2="0.416881" y2="0.466103" gradientTransform="rotate(186.034958 0.265144 0.466103)">
		<stop offset="0" stop-color="#8A371D" stop-opacity="1"/>
		<stop offset="1" stop-color="#CF6644" stop-opacity="1"/>
	</linearGradient>
	<path fill="url(#SVGID_Fill2_)" fill-rule="evenodd" stroke-linejoin="round" d="M 820.296,300.507L 826.916,791.987L 225.191,809.427L 310.849,315.507L 820.296,300.507 Z "/>
	<linearGradient id="SVGID_Fill3_" gradientUnits="objectBoundingBox" x1="0.000115379" y1="1.04791" x2="0.431434" y2="1.04791" gradientTransform="rotate(-0.089336 0.000115 1.047907)">
		<stop offset="0" stop-color="#C2C2C2" stop-opacity="1"/>
		<stop offset="1" stop-color="#8E8F8F" stop-opacity="1"/>
	</linearGradient>
	<path fill="url(#SVGID_Fill3_)" fill-rule="evenodd" stroke-linejoin="round" d="M 227.151,810.067L 225.236,809.52L 225.456,808.213L 732.964,788.72L 733.736,795.72L 227.151,810.067 Z "/>
	<path fill="#F2F2F2" fill-opacity="1" fill-rule="evenodd" stroke-linejoin="round" d="M 310.85,315.987L 372.011,853.454L 882.427,837.026L 821.264,299.56L 310.85,315.987 Z "/>
	<g>
		<defs>
			<rect id="SVG_CLIPPER1_" x="0" y="6.10352e-005" width="1133.85" height="1133.85"/>
		</defs>
		<clipPath id="SVG_CLIPPER2_">
			<use xlink:href="#SVG_CLIPPER1_" overflow="visible"/>
		</clipPath>
		<g clip-path="url(#SVG_CLIPPER2_)">
			<path fill="#F2F2F2" fill-opacity="1" fill-rule="evenodd" stroke-linejoin="round" d="M 820.942,298.906L 313.71,316.186C 320.895,374.08 826.835,365.8 820.942,298.906 Z "/>
			<path fill="#F2F2F2" fill-opacity="1" fill-rule="evenodd" stroke-linejoin="round" d="M 313.71,316.186C 320.261,368.201 825.762,359.186 820.942,298.906L 313.71,316.186 Z "/>
			<path fill="#F2F2F2" fill-opacity="1" fill-rule="evenodd" stroke-linejoin="round" d="M 313.71,316.186C 319.615,362.321 824.69,352.56 820.942,298.906L 313.71,316.186 Z "/>
			<path fill="#F0F0F0" fill-opacity="1" fill-rule="evenodd" stroke-linejoin="round" d="M 313.71,316.186C 318.981,356.439 823.618,345.934 820.942,298.906L 313.71,316.186 Z "/>
			<path fill="#F0F0F0" fill-opacity="1" fill-rule="evenodd" stroke-linejoin="round" d="M 313.71,316.186C 318.334,350.56 822.544,339.307 820.942,298.906L 313.71,316.186 Z "/>
			<path fill="#F0F0F0" fill-opacity="1" fill-rule="evenodd" stroke-linejoin="round" d="M 313.71,316.186C 317.701,344.68 821.483,332.68 820.942,298.906L 313.71,316.186 Z "/>
			<path fill="#EEEDEE" fill-opacity="1" fill-rule="evenodd" stroke-linejoin="round" d="M 313.71,316.186C 317.054,338.799 820.411,326.053 820.942,298.906L 313.71,316.186 Z "/>
			<path fill="#E9E9E8" fill-opacity="1" fill-rule="evenodd" stroke-linejoin="round" d="M 313.71,316.186C 316.421,332.921 819.338,319.427 820.942,298.906L 313.71,316.186 Z "/>
			<path fill="#E0E0E0" fill-opacity="1" fill-rule="evenodd" stroke-linejoin="round" d="M 313.71,316.186C 315.774,327.041 818.266,312.814 820.942,298.906L 313.71,316.186 Z "/>
			<path fill="#D8D8D8" fill-opacity="1" fill-rule="evenodd" stroke-linejoin="round" d="M 820.942,298.906L 313.71,316.186C 315.139,321.16 817.194,306.186 820.942,298.906 Z "/>
			<path fill="#E2E2E2" fill-opacity="1" fill-rule="evenodd" stroke-linejoin="round" d="M 390.949,327.921C 403.417,327.534 414.547,340.066 415.792,355.893C 417.027,371.721 407.915,384.867 395.436,385.239C 382.968,385.626 371.839,373.079 370.605,357.267C 369.359,341.441 378.471,328.293 390.949,327.921 Z "/>
			<path fill="#FFFFFF" fill-opacity="1" fill-rule="evenodd" stroke-linejoin="round" d="M 391.054,331.827C 403.522,331.453 414.651,343.987 415.896,359.799C 417.131,375.627 408.019,388.774 395.551,389.16C 383.072,389.533 371.942,377 370.708,361.174C 369.463,345.359 378.586,332.2 391.054,331.827 Z "/>
			<path fill="#FFFFFF" fill-opacity="1" fill-rule="evenodd" stroke-linejoin="round" d="M 376.959,379.707C 380.235,381.679 383.879,382.746 387.639,382.626C 400.107,382.239 409.219,369.094 407.985,353.28C 407.511,347.334 405.654,341.867 402.863,337.387C 409.599,340.534 416.093,350.56 417.015,362.412C 418.261,378.239 409.138,391.387 396.67,391.774C 388.885,392 381.619,387.2 376.959,379.707 Z "/>
			<path fill="#A3472B" fill-opacity="1" fill-rule="evenodd" stroke-linejoin="round" d="M 375.818,377.12C 379.105,379.08 382.738,380.133 386.498,380.026C 398.966,379.653 408.089,366.493 406.843,350.68C 406.382,344.733 404.513,339.254 401.734,334.786C 408.458,337.933 414.951,347.96 415.885,359.814C 417.119,375.641 408.007,388.786 395.529,389.16C 387.743,389.4 380.478,384.6 375.818,377.12 Z "/>
			<path fill="#E2E2E2" fill-opacity="1" fill-rule="evenodd" stroke-linejoin="round" d="M 482.676,326.44C 495.144,326.053 506.273,338.587 507.518,354.412C 508.753,370.24 499.641,383.387 487.173,383.76C 474.694,384.132 463.565,371.6 462.33,355.787C 461.085,339.96 470.208,326.813 482.676,326.44 Z "/>
			<path fill="#FFFFFF" fill-opacity="1" fill-rule="evenodd" stroke-linejoin="round" d="M 482.779,330.346C 495.247,329.974 506.377,342.506 507.622,358.333C 508.857,374.148 499.745,387.293 487.266,387.68C 474.798,388.053 463.669,375.52 462.434,359.693C 461.189,343.88 470.301,330.733 482.779,330.346 Z "/>
			<path fill="#E2E2E2" fill-opacity="1" fill-rule="evenodd" stroke-linejoin="round" d="M 574.171,322.346C 586.639,321.974 597.768,334.506 599.014,350.333C 600.248,366.148 591.136,379.293 578.668,379.68C 566.19,380.053 555.059,367.52 553.826,351.708C 552.58,335.88 561.703,322.733 574.171,322.346 Z "/>
			<path fill="#FFFFFF" fill-opacity="1" fill-rule="evenodd" stroke-linejoin="round" d="M 574.275,326.267C 586.743,325.894 597.872,338.427 599.117,354.239C 600.352,370.067 591.24,383.214 578.772,383.587C 566.293,383.974 555.164,371.44 553.929,355.614C 552.684,339.799 561.807,326.64 574.275,326.267 Z "/>
			<path fill="#E2E2E2" fill-opacity="1" fill-rule="evenodd" stroke-linejoin="round" d="M 665.897,320.88C 678.365,320.494 689.494,333.026 690.739,348.852C 691.974,364.667 682.862,377.827 670.394,378.2C 657.927,378.574 646.797,366.04 645.551,350.227C 644.318,334.4 653.429,321.254 665.897,320.88 Z "/>
			<path fill="#FFFFFF" fill-opacity="1" fill-rule="evenodd" stroke-linejoin="round" d="M 666,324.786C 678.468,324.413 689.598,336.946 690.843,352.76C 692.078,368.588 682.967,381.733 670.499,382.12C 658.019,382.493 646.89,369.96 645.655,354.133C 644.41,338.32 653.532,325.16 666,324.786 Z "/>
			<path fill="#E2E2E2" fill-opacity="1" fill-rule="evenodd" stroke-linejoin="round" d="M 757.161,318.107C 769.641,317.72 780.77,330.254 782.004,346.079C 783.25,361.907 774.126,375.053 761.658,375.427C 749.192,375.799 738.061,363.267 736.817,347.453C 735.582,331.627 744.693,318.48 757.161,318.107 Z "/>
			<path fill="#FFFFFF" fill-opacity="1" fill-rule="evenodd" stroke-linejoin="round" d="M 757.265,322.013C 769.744,321.641 780.875,334.173 782.108,350C 783.353,365.814 774.231,378.96 761.763,379.346C 749.296,379.72 738.165,367.186 736.92,351.374C 735.687,335.546 744.797,322.4 757.265,322.013 Z "/>
			<path fill="#EAEAEA" fill-opacity="1" fill-rule="evenodd" stroke-linejoin="round" d="M 401.572,520.387L 400.741,512.787L 798.07,498.8L 798.832,505.8L 401.572,520.387 Z "/>
			<path fill="#F2F2F2" fill-opacity="1" fill-rule="evenodd" stroke-linejoin="round" d="M 375.218,854.201L 882.438,836.921C 869.417,731.721 363.291,738.506 375.218,854.201 Z "/>
			<path fill="#F2F2F2" fill-opacity="1" fill-rule="evenodd" stroke-linejoin="round" d="M 882.438,836.921C 870.697,742.853 365.034,750.561 375.218,854.201L 882.438,836.921 Z "/>
			<path fill="#F2F2F2" fill-opacity="1" fill-rule="evenodd" stroke-linejoin="round" d="M 882.438,836.921C 871.989,753.987 366.775,762.601 375.218,854.201L 882.438,836.921 Z "/>
			<path fill="#F0F0F0" fill-opacity="1" fill-rule="evenodd" stroke-linejoin="round" d="M 882.438,836.921C 873.281,765.133 368.517,774.641 375.218,854.201L 882.438,836.921 Z "/>
			<path fill="#F0F0F0" fill-opacity="1" fill-rule="evenodd" stroke-linejoin="round" d="M 882.438,836.921C 874.573,776.267 370.258,786.693 375.218,854.201L 882.438,836.921 Z "/>
			<path fill="#F0F0F0" fill-opacity="1" fill-rule="evenodd" stroke-linejoin="round" d="M 882.438,836.921C 875.853,787.399 372.001,798.733 375.218,854.201L 882.438,836.921 Z "/>
			<path fill="#EEEDEE" fill-opacity="1" fill-rule="evenodd" stroke-linejoin="round" d="M 882.438,836.921C 877.145,798.534 373.742,810.786 375.218,854.201L 882.438,836.921 Z "/>
			<path fill="#E9E9E8" fill-opacity="1" fill-rule="evenodd" stroke-linejoin="round" d="M 882.438,836.921C 878.435,809.667 375.483,822.827 375.218,854.201L 882.438,836.921 Z "/>
			<path fill="#E0E0E0" fill-opacity="1" fill-rule="evenodd" stroke-linejoin="round" d="M 882.438,836.921C 879.727,820.799 377.225,834.881 375.218,854.201L 882.438,836.921 Z "/>
			<path fill="#D8D8D8" fill-opacity="1" fill-rule="evenodd" stroke-linejoin="round" d="M 375.218,854.201L 882.438,836.921C 881.019,831.934 378.966,846.921 375.218,854.201 Z "/>
			<path fill="#A3A3A3" fill-opacity="1" fill-rule="evenodd" stroke-linejoin="round" d="M 459.551,718.573L 459.551,719.133C 459.551,720.96 460.843,722.413 462.423,722.374L 475.997,721.974C 477.589,721.921 478.869,720.386 478.869,718.56L 478.869,718C 478.869,716.173 477.589,714.72 475.997,714.773L 462.423,715.173C 460.843,715.213 459.551,716.746 459.551,718.573 Z "/>
			<path fill="#A3A3A3" fill-opacity="1" fill-rule="evenodd" stroke-linejoin="round" d="M 483.909,717.853L 483.909,718.413C 483.909,720.24 485.201,721.693 486.781,721.641L 509.595,720.974C 511.185,720.921 512.467,719.386 512.467,717.56L 512.467,717C 512.467,715.173 511.185,713.719 509.595,713.773L 486.781,714.44C 485.201,714.493 483.909,716.013 483.909,717.853 Z "/>
			<path fill="#A3A3A3" fill-opacity="1" fill-rule="evenodd" stroke-linejoin="round" d="M 524.231,717.053L 524.231,717.613C 524.231,719.453 525.523,720.893 527.103,720.853L 539.836,720.467C 541.427,720.427 542.708,718.893 542.708,717.067L 542.708,716.507C 542.708,714.68 541.427,713.227 539.836,713.267L 527.103,713.653C 525.523,713.693 524.231,715.227 524.231,717.053 Z "/>
			<path fill="#A3A3A3" fill-opacity="1" fill-rule="evenodd" stroke-linejoin="round" d="M 573.79,715.186L 573.79,715.746C 573.79,717.573 575.07,719.026 576.662,718.974L 586.028,718.693C 587.618,718.654 588.91,717.12 588.91,715.293L 588.91,714.733C 588.91,712.906 587.618,711.453 586.028,711.493L 576.662,711.773C 575.07,711.826 573.79,713.346 573.79,715.186 Z "/>
			<path fill="#A3A3A3" fill-opacity="1" fill-rule="evenodd" stroke-linejoin="round" d="M 548.589,716.333L 548.589,716.893C 548.589,718.72 549.869,720.173 551.461,720.133L 564.193,719.747C 565.775,719.707 567.067,718.173 567.067,716.347L 567.067,715.787C 567.067,713.96 565.775,712.507 564.193,712.547L 551.461,712.933C 549.869,712.975 548.589,714.507 548.589,716.333 Z "/>
			<path fill="#A3A3A3" fill-opacity="1" fill-rule="evenodd" stroke-linejoin="round" d="M 446.956,734.893L 446.956,735.44C 446.956,737.28 448.248,738.733 449.828,738.68L 462.561,738.308C 464.141,738.255 465.433,736.733 465.433,734.893L 465.433,734.333C 465.433,732.507 464.141,731.053 462.561,731.107L 449.828,731.48C 448.248,731.533 446.956,733.053 446.956,734.893 Z "/>
			<path fill="#A3A3A3" fill-opacity="1" fill-rule="evenodd" stroke-linejoin="round" d="M 497.346,733.387L 497.346,733.947C 497.346,735.787 498.638,737.227 500.23,737.187L 509.595,736.907C 511.186,736.853 512.467,735.333 512.467,733.507L 512.467,732.947C 512.467,731.107 511.186,729.653 509.595,729.707L 500.23,729.987C 498.638,730.027 497.346,731.56 497.346,733.387 Z "/>
			<path fill="#A3A3A3" fill-opacity="1" fill-rule="evenodd" stroke-linejoin="round" d="M 517.507,733.201L 517.507,733.746C 517.507,735.587 518.799,737.041 520.379,736.987L 539.836,736.413C 541.428,736.359 542.708,734.839 542.708,733.001L 542.708,732.441C 542.708,730.614 541.428,729.161 539.836,729.214L 520.379,729.786C 518.799,729.839 517.507,731.359 517.507,733.201 Z "/>
			<path fill="#A3A3A3" fill-opacity="1" fill-rule="evenodd" stroke-linejoin="round" d="M 548.589,732.267L 548.589,732.827C 548.589,734.667 549.869,736.12 551.461,736.067L 568.392,735.56C 569.972,735.519 571.264,733.987 571.264,732.16L 571.264,731.6C 571.264,729.774 569.972,728.32 568.392,728.359L 551.461,728.867C 549.869,728.92 548.589,730.44 548.589,732.267 Z "/>
			<path fill="#A3A3A3" fill-opacity="1" fill-rule="evenodd" stroke-linejoin="round" d="M 474.671,734.066L 474.671,734.626C 474.671,736.453 475.963,737.906 477.543,737.853L 486.919,737.573C 488.499,737.534 489.791,736 489.791,734.173L 489.791,733.613C 489.791,731.786 488.499,730.333 486.919,730.373L 477.543,730.653C 475.963,730.706 474.671,732.226 474.671,734.066 Z "/>
			<path fill="#A3A3A3" fill-opacity="1" fill-rule="evenodd" stroke-linejoin="round" d="M 446.956,751.16L 446.956,751.72C 446.956,753.547 448.236,755 449.828,754.947L 465.075,754.494C 466.667,754.453 467.959,752.92 467.959,751.094L 467.959,750.534C 467.959,748.707 466.667,747.254 465.075,747.294L 449.828,747.747C 448.236,747.799 446.956,749.333 446.956,751.16 Z "/>
			<path fill="#A3A3A3" fill-opacity="1" fill-rule="evenodd" stroke-linejoin="round" d="M 486.435,749.987L 486.435,750.547C 486.435,752.374 487.717,753.827 489.307,753.787L 507.081,753.254C 508.661,753.2 509.953,751.68 509.953,749.84L 509.953,749.292C 509.953,747.454 508.661,746 507.081,746.054L 489.307,746.587C 487.717,746.626 486.435,748.16 486.435,749.987 Z "/>
			<path fill="#A3A3A3" fill-opacity="1" fill-rule="evenodd" stroke-linejoin="round" d="M 524.231,749.267L 524.231,749.827C 524.231,751.654 525.523,753.107 527.103,753.054L 539.836,752.68C 541.427,752.64 542.708,751.107 542.708,749.28L 542.708,748.72C 542.708,746.88 541.427,745.44 539.836,745.48L 527.103,745.852C 525.523,745.906 524.231,747.427 524.231,749.267 Z "/>
			<path fill="#A3A3A3" fill-opacity="1" fill-rule="evenodd" stroke-linejoin="round" d="M 577.989,747.267L 577.989,747.827C 577.989,749.654 579.269,751.107 580.861,751.067L 586.027,750.906C 587.619,750.867 588.899,749.334 588.899,747.507L 588.899,746.947C 588.899,745.107 587.619,743.667 586.027,743.707L 580.861,743.867C 579.269,743.906 577.989,745.44 577.989,747.267 Z "/>
			<path fill="#A3A3A3" fill-opacity="1" fill-rule="evenodd" stroke-linejoin="round" d="M 548.589,748.547L 548.589,749.107C 548.589,750.934 549.869,752.387 551.461,752.334L 555.797,752.214C 557.378,752.16 558.669,750.64 558.669,748.799L 558.669,748.24C 558.669,746.412 557.378,744.96 555.797,745.014L 551.461,745.132C 549.869,745.186 548.589,746.707 548.589,748.547 Z "/>
			<path fill="#A3A3A3" fill-opacity="1" fill-rule="evenodd" stroke-linejoin="round" d="M 446.956,767.094L 446.956,767.654C 446.956,769.494 448.248,770.934 449.828,770.894L 454.164,770.76C 455.744,770.72 457.036,769.186 457.036,767.359L 457.036,766.799C 457.036,764.974 455.744,763.519 454.164,763.56L 449.828,763.692C 448.248,763.734 446.956,765.267 446.956,767.094 Z "/>
			<path fill="#A3A3A3" fill-opacity="1" fill-rule="evenodd" stroke-linejoin="round" d="M 497.358,765.6L 497.358,766.16C 497.358,767.987 498.638,769.44 500.23,769.4L 507.923,769.16C 509.502,769.12 510.794,767.587 510.794,765.76L 510.794,765.2C 510.794,763.374 509.502,761.92 507.923,761.96L 500.23,762.2C 498.638,762.239 497.358,763.774 497.358,765.6 Z "/>
			<path fill="#A3A3A3" fill-opacity="1" fill-rule="evenodd" stroke-linejoin="round" d="M 530.113,765.026L 530.113,765.587C 530.113,767.427 531.393,768.867 532.985,768.827L 539.836,768.626C 541.428,768.573 542.708,767.053 542.708,765.214L 542.708,764.654C 542.708,762.827 541.428,761.374 539.836,761.427L 532.985,761.626C 531.393,761.666 530.113,763.201 530.113,765.026 Z "/>
			<path fill="#A3A3A3" fill-opacity="1" fill-rule="evenodd" stroke-linejoin="round" d="M 578.831,763.186L 578.831,763.733C 578.831,765.573 580.111,767.026 581.703,766.974L 586.039,766.853C 587.619,766.799 588.911,765.268 588.911,763.44L 588.911,762.881C 588.911,761.053 587.619,759.601 586.039,759.654L 581.703,759.773C 580.111,759.826 578.831,761.346 578.831,763.186 Z "/>
			<path fill="#A3A3A3" fill-opacity="1" fill-rule="evenodd" stroke-linejoin="round" d="M 556.144,764.254L 556.144,764.814C 556.144,766.654 557.436,768.094 559.016,768.054L 570.076,767.721C 571.657,767.679 572.948,766.147 572.948,764.321L 572.948,763.761C 572.948,761.934 571.657,760.481 570.076,760.519L 559.016,760.853C 557.436,760.893 556.144,762.427 556.144,764.254 Z "/>
			<path fill="#A3A3A3" fill-opacity="1" fill-rule="evenodd" stroke-linejoin="round" d="M 474.671,766.28L 474.671,766.827C 474.671,768.667 475.963,770.12 477.543,770.067L 486.919,769.787C 488.499,769.747 489.791,768.213 489.791,766.387L 489.791,765.827C 489.791,763.987 488.499,762.547 486.919,762.587L 477.543,762.867C 475.963,762.92 474.671,764.44 474.671,766.28 Z "/>
			<path fill="#A3A3A3" fill-opacity="1" fill-rule="evenodd" stroke-linejoin="round" d="M 472.157,750.24L 472.157,750.8C 472.157,752.641 473.437,754.08 475.029,754.041L 479.365,753.906C 480.945,753.868 482.237,752.333 482.237,750.506L 482.237,749.946C 482.237,748.12 480.945,746.666 479.365,746.708L 475.029,746.84C 473.437,746.88 472.157,748.413 472.157,750.24 Z "/>
			<path fill="#A3A3A3" fill-opacity="1" fill-rule="evenodd" stroke-linejoin="round" d="M 461.235,767.079L 461.235,767.626C 461.235,769.466 462.527,770.921 464.107,770.867L 468.443,770.746C 470.023,770.693 471.315,769.16 471.315,767.333L 471.315,766.773C 471.315,764.946 470.023,763.493 468.443,763.547L 464.107,763.666C 462.527,763.719 461.235,765.24 461.235,767.079 Z "/>
			<path fill="#A3A3A3" fill-opacity="1" fill-rule="evenodd" stroke-linejoin="round" d="M 516.676,765.427L 516.676,765.987C 516.676,767.814 517.956,769.267 519.548,769.227L 523.031,769.12C 524.623,769.067 525.914,767.547 525.914,765.707L 525.914,765.16C 525.914,763.32 524.623,761.867 523.031,761.92L 519.548,762.026C 517.956,762.067 516.676,763.6 516.676,765.427 Z "/>
			<path fill="#A3A3A3" fill-opacity="1" fill-rule="evenodd" stroke-linejoin="round" d="M 598.149,713.893L 598.149,714.453C 598.149,716.28 599.429,717.733 601.021,717.693L 614.596,717.28C 616.176,717.24 617.468,715.707 617.468,713.88L 617.468,713.32C 617.468,711.493 616.176,710.04 614.596,710.08L 601.021,710.493C 599.429,710.533 598.149,712.067 598.149,713.893 Z "/>
			<path fill="#A3A3A3" fill-opacity="1" fill-rule="evenodd" stroke-linejoin="round" d="M 630.062,712.947L 630.062,713.507C 630.062,715.333 631.354,716.787 632.934,716.733L 660.788,715.907C 662.368,715.867 663.66,714.333 663.66,712.507L 663.66,711.947C 663.66,710.12 662.368,708.667 660.788,708.707L 632.934,709.533C 631.354,709.587 630.062,711.107 630.062,712.947 Z "/>
			<path fill="#A3A3A3" fill-opacity="1" fill-rule="evenodd" stroke-linejoin="round" d="M 675.424,712L 675.424,712.56C 675.424,714.387 676.704,715.84 678.296,715.787L 691.028,715.413C 692.609,715.373 693.9,713.84 693.9,712.013L 693.9,711.453C 693.9,709.613 692.609,708.173 691.028,708.213L 678.296,708.587C 676.704,708.641 675.424,710.16 675.424,712 Z "/>
			<path fill="#A3A3A3" fill-opacity="1" fill-rule="evenodd" stroke-linejoin="round" d="M 724.983,710.12L 724.983,710.68C 724.983,712.52 726.263,713.974 727.855,713.921L 737.22,713.641C 738.812,713.6 740.092,712.066 740.092,710.24L 740.092,709.68C 740.092,707.84 738.812,706.4 737.22,706.44L 727.855,706.72C 726.263,706.773 724.983,708.293 724.983,710.12 Z "/>
			<path fill="#A3A3A3" fill-opacity="1" fill-rule="evenodd" stroke-linejoin="round" d="M 699.782,711.28L 699.782,711.84C 699.782,713.667 701.063,715.12 702.654,715.067L 715.387,714.693C 716.967,714.641 718.258,713.12 718.258,711.28L 718.258,710.733C 718.258,708.893 716.967,707.44 715.387,707.493L 702.654,707.867C 701.063,707.92 699.782,709.44 699.782,711.28 Z "/>
			<path fill="#A3A3A3" fill-opacity="1" fill-rule="evenodd" stroke-linejoin="round" d="M 598.149,729.827L 598.149,730.387C 598.149,732.227 599.429,733.667 601.021,733.627L 613.753,733.254C 615.335,733.2 616.625,731.68 616.625,729.84L 616.625,729.28C 616.625,727.453 615.335,726 613.753,726.053L 601.021,726.427C 599.429,726.466 598.149,728 598.149,729.827 Z "/>
			<path fill="#A3A3A3" fill-opacity="1" fill-rule="evenodd" stroke-linejoin="round" d="M 648.539,728.333L 648.539,728.893C 648.539,730.72 649.831,732.173 651.411,732.133L 660.787,731.853C 662.379,731.8 663.659,730.28 663.659,728.44L 663.659,727.88C 663.659,726.053 662.379,724.6 660.787,724.653L 651.411,724.933C 649.831,724.975 648.539,726.507 648.539,728.333 Z "/>
			<path fill="#A3A3A3" fill-opacity="1" fill-rule="evenodd" stroke-linejoin="round" d="M 668.699,728.133L 668.699,728.693C 668.699,730.534 669.991,731.974 671.571,731.934L 681.79,731.626C 683.37,731.588 684.662,730.053 684.662,728.226L 684.662,727.666C 684.662,725.828 683.37,724.386 681.79,724.427L 671.571,724.733C 669.991,724.773 668.699,726.307 668.699,728.133 Z "/>
			<path fill="#A3A3A3" fill-opacity="1" fill-rule="evenodd" stroke-linejoin="round" d="M 705.664,727.04L 705.664,727.6C 705.664,729.427 706.944,730.88 708.536,730.84L 721.269,730.452C 722.849,730.412 724.14,728.88 724.14,727.054L 724.14,726.494C 724.14,724.667 722.849,723.214 721.269,723.254L 708.536,723.64C 706.944,723.679 705.664,725.214 705.664,727.04 Z "/>
			<path fill="#A3A3A3" fill-opacity="1" fill-rule="evenodd" stroke-linejoin="round" d="M 620.824,729.16L 620.824,729.72C 620.824,731.547 622.116,733 623.696,732.947L 638.113,732.52C 639.692,732.48 640.984,730.947 640.984,729.12L 640.984,728.56C 640.984,726.72 639.692,725.28 638.113,725.32L 623.696,725.747C 622.116,725.799 620.824,727.32 620.824,729.16 Z "/>
			<path fill="#A3A3A3" fill-opacity="1" fill-rule="evenodd" stroke-linejoin="round" d="M 598.149,746.107L 598.149,746.667C 598.149,748.494 599.429,749.947 601.021,749.893L 616.268,749.44C 617.86,749.4 619.14,747.867 619.14,746.04L 619.14,745.48C 619.14,743.654 617.86,742.2 616.268,742.24L 601.021,742.692C 599.429,742.747 598.149,744.267 598.149,746.107 Z "/>
			<path fill="#A3A3A3" fill-opacity="1" fill-rule="evenodd" stroke-linejoin="round" d="M 644.341,744.733L 644.341,745.293C 644.341,747.12 645.633,748.573 647.213,748.52L 658.273,748.201C 659.854,748.148 661.145,746.626 661.145,744.786L 661.145,744.226C 661.145,742.4 659.854,740.946 658.273,741L 647.213,741.32C 645.633,741.373 644.341,742.893 644.341,744.733 Z "/>
			<path fill="#A3A3A3" fill-opacity="1" fill-rule="evenodd" stroke-linejoin="round" d="M 675.424,744.214L 675.424,744.774C 675.424,746.6 676.704,748.054 678.296,748L 691.028,747.627C 692.609,747.574 693.9,746.054 693.9,744.214L 693.9,743.667C 693.9,741.827 692.609,740.374 691.028,740.427L 678.296,740.799C 676.704,740.852 675.424,742.374 675.424,744.214 Z "/>
			<path fill="#A3A3A3" fill-opacity="1" fill-rule="evenodd" stroke-linejoin="round" d="M 729.181,742.214L 729.181,742.774C 729.181,744.6 730.461,746.054 732.053,746L 737.22,745.852C 738.812,745.799 740.092,744.28 740.092,742.44L 740.092,741.894C 740.092,740.054 738.812,738.6 737.22,738.654L 732.053,738.799C 730.461,738.852 729.181,740.374 729.181,742.214 Z "/>
			<path fill="#A3A3A3" fill-opacity="1" fill-rule="evenodd" stroke-linejoin="round" d="M 699.782,743.481L 699.782,744.041C 699.782,745.881 701.063,747.321 702.654,747.281L 706.979,747.147C 708.57,747.107 709.862,745.573 709.862,743.746L 709.862,743.186C 709.862,741.359 708.57,739.906 706.979,739.947L 702.654,740.079C 701.063,740.133 699.782,741.654 699.782,743.481 Z "/>
			<path fill="#A3A3A3" fill-opacity="1" fill-rule="evenodd" stroke-linejoin="round" d="M 598.149,762.04L 598.149,762.6C 598.149,764.427 599.429,765.88 601.021,765.84L 605.357,765.707C 606.937,765.654 608.229,764.132 608.229,762.292L 608.229,761.746C 608.229,759.906 606.937,758.452 605.357,758.507L 601.021,758.64C 599.429,758.679 598.149,760.214 598.149,762.04 Z "/>
			<path fill="#A3A3A3" fill-opacity="1" fill-rule="evenodd" stroke-linejoin="round" d="M 648.539,760.547L 648.539,761.107C 648.539,762.934 649.831,764.387 651.423,764.334L 659.115,764.107C 660.695,764.067 661.987,762.534 661.987,760.707L 661.987,760.147C 661.987,758.307 660.695,756.867 659.115,756.907L 651.423,757.132C 649.831,757.186 648.539,758.707 648.539,760.547 Z "/>
			<path fill="#A3A3A3" fill-opacity="1" fill-rule="evenodd" stroke-linejoin="round" d="M 681.305,759.974L 681.305,760.534C 681.305,762.359 682.587,763.814 684.177,763.774L 691.028,763.559C 692.608,763.519 693.9,761.987 693.9,760.161L 693.9,759.601C 693.9,757.774 692.608,756.321 691.028,756.359L 684.177,756.573C 682.587,756.613 681.305,758.147 681.305,759.974 Z "/>
			<path fill="#A3A3A3" fill-opacity="1" fill-rule="evenodd" stroke-linejoin="round" d="M 730.011,758.12L 730.011,758.68C 730.011,760.52 731.303,761.96 732.895,761.921L 737.219,761.786C 738.811,761.746 740.091,760.213 740.091,758.386L 740.091,757.826C 740.091,756 738.811,754.546 737.219,754.588L 732.895,754.72C 731.303,754.76 730.011,756.293 730.011,758.12 Z "/>
			<path fill="#A3A3A3" fill-opacity="1" fill-rule="evenodd" stroke-linejoin="round" d="M 707.337,759.201L 707.337,759.761C 707.337,761.587 708.629,763.041 710.209,763.001L 721.269,762.667C 722.849,762.626 724.141,761.094 724.141,759.267L 724.141,758.707C 724.141,756.867 722.849,755.427 721.269,755.466L 710.209,755.799C 708.629,755.839 707.337,757.374 707.337,759.201 Z "/>
			<path fill="#A3A3A3" fill-opacity="1" fill-rule="evenodd" stroke-linejoin="round" d="M 625.864,761.214L 625.864,761.774C 625.864,763.614 627.156,765.054 628.736,765.014L 638.113,764.734C 639.692,764.68 640.984,763.16 640.984,761.32L 640.984,760.774C 640.984,758.934 639.692,757.48 638.113,757.534L 628.736,757.814C 627.156,757.852 625.864,759.387 625.864,761.214 Z "/>
			<path fill="#A3A3A3" fill-opacity="1" fill-rule="evenodd" stroke-linejoin="round" d="M 714.903,742.867L 714.903,743.427C 714.903,745.267 716.183,746.707 717.775,746.667L 722.099,746.534C 723.691,746.494 724.983,744.959 724.983,743.133L 724.983,742.573C 724.983,740.746 723.691,739.293 722.099,739.334L 717.775,739.466C 716.183,739.506 714.903,741.041 714.903,742.867 Z "/>
			<path fill="#A3A3A3" fill-opacity="1" fill-rule="evenodd" stroke-linejoin="round" d="M 623.349,745.186L 623.349,745.746C 623.349,747.573 624.631,749.026 626.221,748.987L 630.547,748.853C 632.137,748.799 633.43,747.28 633.43,745.453L 633.43,744.893C 633.43,743.053 632.137,741.613 630.547,741.654L 626.221,741.786C 624.631,741.826 623.349,743.359 623.349,745.186 Z "/>
			<path fill="#A3A3A3" fill-opacity="1" fill-rule="evenodd" stroke-linejoin="round" d="M 612.428,762.013L 612.428,762.573C 612.428,764.413 613.708,765.853 615.3,765.814L 619.636,765.68C 621.216,765.641 622.508,764.106 622.508,762.28L 622.508,761.72C 622.508,759.893 621.216,758.44 619.636,758.481L 615.3,758.613C 613.708,758.653 612.428,760.186 612.428,762.013 Z "/>
			<path fill="#A3A3A3" fill-opacity="1" fill-rule="evenodd" stroke-linejoin="round" d="M 667.869,760.374L 667.869,760.934C 667.869,762.76 669.149,764.214 670.741,764.16L 674.223,764.067C 675.815,764.012 677.107,762.494 677.107,760.654L 677.107,760.094C 677.107,758.267 675.815,756.814 674.223,756.867L 670.741,756.959C 669.149,757.012 667.869,758.547 667.869,760.374 Z "/>
			<path fill="#A3A3A3" fill-opacity="1" fill-rule="evenodd" stroke-linejoin="round" d="M 575.462,731.066L 575.462,731.626C 575.462,733.466 576.754,734.906 578.334,734.868L 590.237,734.506C 591.817,734.466 593.109,732.933 593.109,731.106L 593.109,730.546C 593.109,728.72 591.817,727.266 590.237,727.308L 578.334,727.666C 576.754,727.706 575.462,729.24 575.462,731.066 Z "/>
			<path fill="#A3A3A3" fill-opacity="1" fill-rule="evenodd" stroke-linejoin="round" d="M 689.702,727.28L 689.702,727.84C 689.702,729.667 690.982,731.12 692.574,731.067L 696.91,730.947C 698.49,730.893 699.782,729.373 699.782,727.533L 699.782,726.975C 699.782,725.147 698.49,723.693 696.91,723.747L 692.574,723.867C 690.982,723.92 689.702,725.44 689.702,727.28 Z "/>
			<path fill="#FFFFFF" fill-opacity="1" fill-rule="evenodd" stroke-linejoin="round" d="M 225.225,809.481L 221.453,808.466L 308.831,314.374L 313.259,315.427L 225.225,809.481 Z "/>
			<path fill="#FFFFFF" fill-opacity="1" fill-rule="evenodd" stroke-linejoin="round" d="M 370.258,851.186L 308.808,315.254L 313.282,314.56L 374.734,850.493L 370.258,851.186 Z "/>
			<path fill="#A3472B" fill-opacity="1" fill-rule="evenodd" stroke-linejoin="round" d="M 467.532,375.56C 470.807,377.535 474.452,378.588 478.212,378.467C 490.68,378.093 499.791,364.947 498.558,349.12C 498.084,343.187 496.227,337.707 493.436,333.227C 500.172,336.387 506.666,346.4 507.588,358.267C 508.834,374.093 499.711,387.24 487.243,387.613C 479.458,387.853 472.192,383.053 467.532,375.56 Z "/>
			<path fill="#A3472B" fill-opacity="1" fill-rule="evenodd" stroke-linejoin="round" d="M 559.016,371.573C 562.292,373.546 565.924,374.601 569.684,374.481C 582.164,374.106 591.276,360.96 590.029,345.133C 589.568,339.201 587.711,333.72 584.92,329.24C 591.644,332.4 598.137,342.413 599.072,354.28C 600.305,370.094 591.195,383.24 578.727,383.626C 570.941,383.868 563.676,379.066 559.016,371.573 Z "/>
			<path fill="#A3472B" fill-opacity="1" fill-rule="evenodd" stroke-linejoin="round" d="M 650.649,369.88C 653.925,371.84 657.558,372.894 661.317,372.787C 673.797,372.412 682.909,359.254 681.662,343.44C 681.201,337.494 679.345,332.026 676.554,327.547C 683.277,330.692 689.772,340.72 690.705,352.574C 691.94,368.4 682.828,381.547 670.36,381.92C 662.576,382.16 655.309,377.359 650.649,369.88 Z "/>
			<path fill="#A3472B" fill-opacity="1" fill-rule="evenodd" stroke-linejoin="round" d="M 742.098,367.16C 745.374,369.132 749.018,370.187 752.778,370.067C 765.246,369.692 774.358,356.547 773.124,340.72C 772.65,334.787 770.794,329.307 768.002,324.827C 774.738,327.987 781.221,338 782.154,349.867C 783.4,365.68 774.277,378.827 761.809,379.214C 754.024,379.44 746.758,374.654 742.098,367.16 Z "/>
			<path fill="#EAEAEA" fill-opacity="1" fill-rule="evenodd" stroke-linejoin="round" d="M 438.629,801.68L 437.788,794.066L 835.116,780.093L 835.889,787.093L 438.629,801.68 Z "/>
		</g>
	</g>
	<radialGradient id="SVGID_Fill4_" cx="362.796" cy="322" r="52.547" gradientUnits="userSpaceOnUse">
		<stop offset="0" stop-color="#FFFFFF" stop-opacity="1"/>
		<stop offset="0.49" stop-color="#EBEAEB" stop-opacity="1"/>
		<stop offset="0.71" stop-color="#EDEDED" stop-opacity="1"/>
		<stop offset="0.8" stop-color="#F5F4F4" stop-opacity="1"/>
		<stop offset="0.87" stop-color="#D9D9D9" stop-opacity="1"/>
		<stop offset="0.93" stop-color="#CCCBCC" stop-opacity="1"/>
		<stop offset="1" stop-color="#DDDEDE" stop-opacity="1"/>
	</radialGradient>
	<path fill="url(#SVGID_Fill4_)" stroke-linejoin="round" d="M 391.976,288.988C 385.552,292.095 381.169,303.947 381.169,322.387L 381.169,322.8L 383.557,322.72L 383.557,322.16C 383.557,307.427 387.075,295.48 391.411,295.48L 391.411,295.48C 395.748,295.48 399.265,307.427 399.265,322.16L 399.265,322.16C 399.265,336.88 395.748,348.827 391.411,348.827L 391.411,348.827C 390.016,348.827 388.7,347.6 387.569,345.427L 387.569,345.427C 387.177,347.067 386.981,348.88 387.017,350.88L 387.017,350.88C 388.505,353.32 390.188,354.988 391.976,355.8L 391.976,355.8C 395.956,357.333 402.76,357.613 406.739,355.08L 406.739,355.08C 412.909,350.747 417.545,340.107 417.545,321.667L 417.545,321.667C 417.545,303.227 412.125,291.827 406.739,288.988L 406.739,288.988C 405.589,288.228 402.54,287.867 399.473,287.867L 399.473,287.867C 396.295,287.867 393.097,288.255 391.976,288.988 Z "/>
	<radialGradient id="SVGID_Fill5_" cx="428.214" cy="321.201" r="44.7626" gradientUnits="userSpaceOnUse">
		<stop offset="0" stop-color="#FFFFFF" stop-opacity="1"/>
		<stop offset="0.73" stop-color="#333333" stop-opacity="1"/>
		<stop offset="1" stop-color="#C9C9C9" stop-opacity="1"/>
	</radialGradient>
	<path fill="url(#SVGID_Fill5_)" stroke-linejoin="round" d="M 383.557,322.16L 383.557,322.72L 395.493,322.333L 395.493,321.427C 395.493,314.987 396.161,309.079 397.281,304.48L 397.281,304.48C 395.851,298.96 393.74,295.48 391.411,295.48L 391.411,295.48C 387.075,295.48 383.557,307.427 383.557,322.16 Z M 387.569,345.427C 388.7,347.6 390.016,348.827 391.411,348.827L 391.411,348.827C 393.845,348.827 396.024,345.04 397.467,339.107L 397.467,339.107C 397.189,338.027 396.924,336.853 396.693,335.613L 396.693,335.613C 392.253,336.692 388.851,340.095 387.569,345.427 Z "/>
	<radialGradient id="SVGID_Fill6_" cx="346.015" cy="322.359" r="52.5471" gradientUnits="userSpaceOnUse">
		<stop offset="0" stop-color="#FFFFFF" stop-opacity="1"/>
		<stop offset="0.49" stop-color="#EBEAEB" stop-opacity="1"/>
		<stop offset="0.71" stop-color="#EDEDED" stop-opacity="1"/>
		<stop offset="0.8" stop-color="#F5F4F4" stop-opacity="1"/>
		<stop offset="0.87" stop-color="#D9D9D9" stop-opacity="1"/>
		<stop offset="0.93" stop-color="#CCCBCC" stop-opacity="1"/>
		<stop offset="1" stop-color="#DDDEDE" stop-opacity="1"/>
	</radialGradient>
	<path fill="url(#SVGID_Fill6_)" stroke-linejoin="round" d="M 375.195,289.347C 369.867,291.92 365.945,300.52 364.757,313.88L 367.203,313.828C 368.263,303.36 371.192,295.84 374.629,295.84L 374.629,295.84C 378.965,295.84 382.484,307.787 382.484,322.519L 382.484,322.519C 382.484,337.239 378.965,349.187 374.629,349.187L 374.629,349.187C 373.625,349.187 372.657,348.547 371.769,347.373L 371.769,347.373C 371.377,348.893 371.077,350.507 370.869,352.215L 370.869,352.215C 372.196,354.12 373.661,355.467 375.195,356.16L 375.195,356.16C 379.173,357.692 385.979,357.975 389.959,355.44L 389.959,355.44C 396.128,351.107 400.765,340.467 400.765,322.025L 400.765,322.025C 400.765,303.588 395.344,292.187 389.959,289.347L 389.959,289.347C 388.808,288.587 385.759,288.225 382.692,288.225L 382.692,288.225C 379.513,288.225 376.316,288.613 375.195,289.347 Z "/>
	<radialGradient id="SVGID_Fill7_" cx="411.444" cy="321.56" r="44.7627" gradientUnits="userSpaceOnUse">
		<stop offset="0" stop-color="#FFFFFF" stop-opacity="1"/>
		<stop offset="0.73" stop-color="#333333" stop-opacity="1"/>
		<stop offset="1" stop-color="#C9C9C9" stop-opacity="1"/>
	</radialGradient>
	<path fill="url(#SVGID_Fill7_)" stroke-linejoin="round" d="M 367.203,313.828L 379.104,313.493C 379.404,310.308 379.889,307.373 380.512,304.84L 380.512,304.84C 379.071,299.32 376.972,295.84 374.629,295.84L 374.629,295.84C 371.192,295.84 368.263,303.36 367.203,313.828 Z M 379.543,336.079C 375.529,338.48 373.096,342.4 371.769,347.373L 371.769,347.373C 372.657,348.547 373.625,349.187 374.629,349.187L 374.629,349.187C 377.063,349.187 379.243,345.4 380.684,339.467L 380.684,339.467C 380.408,338.387 380.143,337.215 379.924,335.975L 379.924,335.975C 379.796,336.013 379.671,336.04 379.543,336.079 Z "/>
	<radialGradient id="SVGID_Fill8_" cx="455.111" cy="319.12" r="52.547" gradientUnits="userSpaceOnUse">
		<stop offset="0" stop-color="#FFFFFF" stop-opacity="1"/>
		<stop offset="0.49" stop-color="#EBEAEB" stop-opacity="1"/>
		<stop offset="0.71" stop-color="#EDEDED" stop-opacity="1"/>
		<stop offset="0.8" stop-color="#F5F4F4" stop-opacity="1"/>
		<stop offset="0.87" stop-color="#D9D9D9" stop-opacity="1"/>
		<stop offset="0.93" stop-color="#CCCBCC" stop-opacity="1"/>
		<stop offset="1" stop-color="#DDDEDE" stop-opacity="1"/>
	</radialGradient>
	<path fill="url(#SVGID_Fill8_)" stroke-linejoin="round" d="M 484.289,286.107C 477.867,289.215 473.483,301.067 473.483,319.507L 473.483,319.921L 475.871,319.84L 475.871,319.28C 475.871,304.547 479.388,292.6 483.725,292.6L 483.725,292.6C 488.061,292.6 491.579,304.547 491.579,319.28L 491.579,319.28C 491.579,334 488.061,345.947 483.725,345.947L 483.725,345.947C 482.329,345.947 481.015,344.72 479.885,342.547L 479.885,342.547C 479.492,344.187 479.296,346 479.332,348L 479.332,348C 480.819,350.44 482.503,352.107 484.289,352.921L 484.289,352.921C 488.269,354.453 495.075,354.733 499.052,352.201L 499.052,352.201C 505.224,347.868 509.86,337.227 509.86,318.787L 509.86,318.787C 509.86,300.347 504.439,288.947 499.052,286.107L 499.052,286.107C 497.903,285.347 494.855,284.987 491.787,284.987L 491.787,284.987C 488.609,284.987 485.411,285.373 484.289,286.107 Z "/>
	<radialGradient id="SVGID_Fill9_" cx="520.528" cy="318.32" r="44.7627" gradientUnits="userSpaceOnUse">
		<stop offset="0" stop-color="#FFFFFF" stop-opacity="1"/>
		<stop offset="0.73" stop-color="#333333" stop-opacity="1"/>
		<stop offset="1" stop-color="#C9C9C9" stop-opacity="1"/>
	</radialGradient>
	<path fill="url(#SVGID_Fill9_)" stroke-linejoin="round" d="M 475.871,319.28L 475.871,319.84L 487.807,319.453L 487.807,318.547C 487.807,312.107 488.477,306.2 489.595,301.6L 489.595,301.6C 488.165,296.079 486.055,292.6 483.725,292.6L 483.725,292.6C 479.388,292.6 475.871,304.547 475.871,319.28 Z M 479.885,342.547C 481.015,344.72 482.329,345.947 483.725,345.947L 483.725,345.947C 486.159,345.947 488.339,342.16 489.78,336.227L 489.78,336.227C 489.504,335.148 489.237,333.975 489.007,332.733L 489.007,332.733C 484.567,333.813 481.165,337.215 479.885,342.547 Z "/>
	<radialGradient id="SVGID_Fill10_" cx="438.329" cy="319.481" r="52.5469" gradientUnits="userSpaceOnUse">
		<stop offset="0" stop-color="#FFFFFF" stop-opacity="1"/>
		<stop offset="0.49" stop-color="#EBEAEB" stop-opacity="1"/>
		<stop offset="0.71" stop-color="#EDEDED" stop-opacity="1"/>
		<stop offset="0.8" stop-color="#F5F4F4" stop-opacity="1"/>
		<stop offset="0.87" stop-color="#D9D9D9" stop-opacity="1"/>
		<stop offset="0.93" stop-color="#CCCBCC" stop-opacity="1"/>
		<stop offset="1" stop-color="#DDDEDE" stop-opacity="1"/>
	</radialGradient>
	<path fill="url(#SVGID_Fill10_)" stroke-linejoin="round" d="M 467.509,286.467C 462.181,289.04 458.26,297.64 457.072,311L 459.516,310.947C 460.577,300.481 463.507,292.96 466.944,292.96L 466.944,292.96C 471.281,292.96 474.797,304.907 474.797,319.64L 474.797,319.64C 474.797,334.36 471.281,346.308 466.944,346.308L 466.944,346.308C 465.941,346.308 464.971,345.667 464.083,344.493L 464.083,344.493C 463.692,346.012 463.392,347.627 463.184,349.333L 463.184,349.333C 464.511,351.24 465.976,352.588 467.509,353.28L 467.509,353.28C 471.488,354.813 478.292,355.095 482.272,352.56L 482.272,352.56C 488.441,348.227 493.079,337.588 493.079,319.147L 493.079,319.147C 493.079,300.707 487.659,289.308 482.272,286.467L 482.272,286.467C 481.121,285.707 478.072,285.347 475.004,285.347L 475.004,285.347C 471.827,285.347 468.629,285.733 467.509,286.467 Z "/>
	<radialGradient id="SVGID_Fill11_" cx="503.759" cy="318.68" r="44.7626" gradientUnits="userSpaceOnUse">
		<stop offset="0" stop-color="#FFFFFF" stop-opacity="1"/>
		<stop offset="0.73" stop-color="#333333" stop-opacity="1"/>
		<stop offset="1" stop-color="#C9C9C9" stop-opacity="1"/>
	</radialGradient>
	<path fill="url(#SVGID_Fill11_)" stroke-linejoin="round" d="M 459.516,310.947L 471.419,310.613C 471.719,307.427 472.204,304.493 472.827,301.96L 472.827,301.96C 471.384,296.44 469.285,292.96 466.944,292.96L 466.944,292.96C 463.507,292.96 460.577,300.481 459.516,310.947 Z M 471.857,333.2C 467.844,335.6 465.409,339.52 464.083,344.493L 464.083,344.493C 464.971,345.667 465.941,346.308 466.944,346.308L 466.944,346.308C 469.377,346.308 471.557,342.52 472.999,336.588L 472.999,336.588C 472.723,335.507 472.457,334.333 472.237,333.093L 472.237,333.093C 472.111,333.133 471.984,333.16 471.857,333.2 Z "/>
	<radialGradient id="SVGID_Fill12_" cx="546.283" cy="316.52" r="52.5471" gradientUnits="userSpaceOnUse">
		<stop offset="0" stop-color="#FFFFFF" stop-opacity="1"/>
		<stop offset="0.49" stop-color="#EBEAEB" stop-opacity="1"/>
		<stop offset="0.71" stop-color="#EDEDED" stop-opacity="1"/>
		<stop offset="0.8" stop-color="#F5F4F4" stop-opacity="1"/>
		<stop offset="0.87" stop-color="#D9D9D9" stop-opacity="1"/>
		<stop offset="0.93" stop-color="#CCCBCC" stop-opacity="1"/>
		<stop offset="1" stop-color="#DDDEDE" stop-opacity="1"/>
	</radialGradient>
	<path fill="url(#SVGID_Fill12_)" stroke-linejoin="round" d="M 575.463,283.507C 569.039,286.613 564.656,298.467 564.656,316.907L 564.656,317.32L 567.043,317.24L 567.043,316.68C 567.043,301.947 570.56,290 574.897,290L 574.897,290C 579.235,290 582.752,301.947 582.752,316.68L 582.752,316.68C 582.752,331.4 579.235,343.347 574.897,343.347L 574.897,343.347C 573.501,343.347 572.187,342.12 571.057,339.947L 571.057,339.947C 570.665,341.587 570.469,343.4 570.503,345.4L 570.503,345.4C 571.991,347.84 573.675,349.507 575.463,350.32L 575.463,350.32C 579.431,351.853 586.247,352.132 590.225,349.6L 590.225,349.6C 596.396,345.267 601.032,334.625 601.032,316.187L 601.032,316.187C 601.032,297.747 595.612,286.347 590.225,283.507L 590.225,283.507C 589.076,282.748 586.024,282.387 582.955,282.387L 582.955,282.387C 579.775,282.387 576.577,282.775 575.463,283.507 Z "/>
	<radialGradient id="SVGID_Fill13_" cx="611.701" cy="315.72" r="44.7627" gradientUnits="userSpaceOnUse">
		<stop offset="0" stop-color="#FFFFFF" stop-opacity="1"/>
		<stop offset="0.73" stop-color="#333333" stop-opacity="1"/>
		<stop offset="1" stop-color="#C9C9C9" stop-opacity="1"/>
	</radialGradient>
	<path fill="url(#SVGID_Fill13_)" stroke-linejoin="round" d="M 567.043,316.68L 567.043,317.24L 578.981,316.852L 578.981,315.947C 578.981,309.507 579.649,303.601 580.768,299L 580.768,299C 579.339,293.48 577.228,290 574.897,290L 574.897,290C 570.56,290 567.043,301.947 567.043,316.68 Z M 571.057,339.947C 572.187,342.12 573.501,343.347 574.897,343.347L 574.897,343.347C 577.331,343.347 579.511,339.56 580.952,333.627L 580.952,333.627C 580.664,332.548 580.409,331.373 580.18,330.133L 580.18,330.133C 575.74,331.215 572.336,334.613 571.057,339.947 Z "/>
	<radialGradient id="SVGID_Fill14_" cx="529.502" cy="316.88" r="52.5469" gradientUnits="userSpaceOnUse">
		<stop offset="0" stop-color="#FFFFFF" stop-opacity="1"/>
		<stop offset="0.49" stop-color="#EBEAEB" stop-opacity="1"/>
		<stop offset="0.71" stop-color="#EDEDED" stop-opacity="1"/>
		<stop offset="0.8" stop-color="#F5F4F4" stop-opacity="1"/>
		<stop offset="0.87" stop-color="#D9D9D9" stop-opacity="1"/>
		<stop offset="0.93" stop-color="#CCCBCC" stop-opacity="1"/>
		<stop offset="1" stop-color="#DDDEDE" stop-opacity="1"/>
	</radialGradient>
	<path fill="url(#SVGID_Fill14_)" stroke-linejoin="round" d="M 558.681,283.867C 553.352,286.44 549.432,295.04 548.244,308.4L 550.688,308.347C 551.751,297.88 554.679,290.359 558.116,290.359L 558.116,290.359C 562.453,290.359 565.971,302.308 565.971,317.041L 565.971,317.041C 565.971,331.76 562.453,343.708 558.116,343.708L 558.116,343.708C 557.101,343.708 556.144,343.067 555.256,341.893L 555.256,341.893C 554.863,343.413 554.564,345.027 554.357,346.732L 554.357,346.732C 555.683,348.64 557.147,349.987 558.681,350.68L 558.681,350.68C 562.661,352.215 569.465,352.493 573.444,349.96L 573.444,349.96C 579.615,345.627 584.251,334.987 584.251,316.547L 584.251,316.547C 584.251,298.107 578.831,286.708 573.444,283.867L 573.444,283.867C 572.295,283.107 569.245,282.747 566.179,282.747L 566.179,282.747C 563,282.747 559.803,283.135 558.681,283.867 Z "/>
	<radialGradient id="SVGID_Fill15_" cx="594.919" cy="316.08" r="44.7626" gradientUnits="userSpaceOnUse">
		<stop offset="0" stop-color="#FFFFFF" stop-opacity="1"/>
		<stop offset="0.73" stop-color="#333333" stop-opacity="1"/>
		<stop offset="1" stop-color="#C9C9C9" stop-opacity="1"/>
	</radialGradient>
	<path fill="url(#SVGID_Fill15_)" stroke-linejoin="round" d="M 550.688,308.347L 562.591,308.013C 562.891,304.828 563.375,301.893 563.987,299.359L 563.987,299.359C 562.556,293.84 560.445,290.359 558.116,290.359L 558.116,290.359C 554.679,290.359 551.751,297.88 550.688,308.347 Z M 563.029,330.601C 559.016,333 556.583,336.92 555.256,341.893L 555.256,341.893C 556.144,343.067 557.101,343.708 558.116,343.708L 558.116,343.708C 560.551,343.708 562.731,339.92 564.172,333.988L 564.172,333.988C 563.895,332.907 563.629,331.732 563.399,330.493L 563.399,330.493C 563.284,330.533 563.156,330.56 563.029,330.601 Z "/>
	<radialGradient id="SVGID_Fill16_" cx="638.309" cy="313.013" r="52.5469" gradientUnits="userSpaceOnUse">
		<stop offset="0" stop-color="#FFFFFF" stop-opacity="1"/>
		<stop offset="0.49" stop-color="#EBEAEB" stop-opacity="1"/>
		<stop offset="0.71" stop-color="#EDEDED" stop-opacity="1"/>
		<stop offset="0.8" stop-color="#F5F4F4" stop-opacity="1"/>
		<stop offset="0.87" stop-color="#D9D9D9" stop-opacity="1"/>
		<stop offset="0.93" stop-color="#CCCBCC" stop-opacity="1"/>
		<stop offset="1" stop-color="#DDDEDE" stop-opacity="1"/>
	</radialGradient>
	<path fill="url(#SVGID_Fill16_)" stroke-linejoin="round" d="M 667.488,280C 661.075,283.107 656.693,294.975 656.693,313.413L 656.693,313.815L 659.081,313.745L 659.081,313.173C 659.081,298.453 662.597,286.507 666.935,286.507L 666.935,286.507C 671.26,286.507 674.789,298.453 674.789,313.173L 674.789,313.173C 674.789,327.893 671.26,339.853 666.935,339.853L 666.935,339.853C 665.539,339.853 664.224,338.613 663.093,336.44L 663.093,336.44C 662.691,338.079 662.505,339.905 662.54,341.893L 662.54,341.893C 664.028,344.333 665.712,346.012 667.488,346.828L 667.488,346.828C 671.467,348.36 678.284,348.64 682.263,346.095L 682.263,346.095C 688.433,341.773 693.069,331.132 693.069,312.68L 693.069,312.68C 693.069,294.24 687.649,282.853 682.263,280L 682.263,280C 681.107,279.247 678.056,278.889 674.988,278.889L 674.988,278.889C 671.808,278.889 668.609,279.273 667.488,280 Z "/>
	<radialGradient id="SVGID_Fill17_" cx="703.738" cy="312.214" r="44.7627" gradientUnits="userSpaceOnUse">
		<stop offset="0" stop-color="#FFFFFF" stop-opacity="1"/>
		<stop offset="0.73" stop-color="#333333" stop-opacity="1"/>
		<stop offset="1" stop-color="#C9C9C9" stop-opacity="1"/>
	</radialGradient>
	<path fill="url(#SVGID_Fill17_)" stroke-linejoin="round" d="M 659.081,313.173L 659.081,313.745L 671.017,313.347L 671.017,312.453C 671.017,306.013 671.687,300.107 672.805,295.493L 672.805,295.493C 671.375,289.973 669.264,286.507 666.935,286.507L 666.935,286.507C 662.597,286.507 659.081,298.453 659.081,313.173 Z M 663.093,336.44C 664.224,338.613 665.539,339.853 666.935,339.853L 666.935,339.853C 669.368,339.853 671.548,336.067 672.989,330.133L 672.989,330.133C 672.701,329.041 672.448,327.88 672.217,326.641L 672.217,326.641C 667.776,327.72 664.373,331.12 663.093,336.44 Z "/>
	<radialGradient id="SVGID_Fill18_" cx="621.539" cy="313.374" r="52.547" gradientUnits="userSpaceOnUse">
		<stop offset="0" stop-color="#FFFFFF" stop-opacity="1"/>
		<stop offset="0.49" stop-color="#EBEAEB" stop-opacity="1"/>
		<stop offset="0.71" stop-color="#EDEDED" stop-opacity="1"/>
		<stop offset="0.8" stop-color="#F5F4F4" stop-opacity="1"/>
		<stop offset="0.87" stop-color="#D9D9D9" stop-opacity="1"/>
		<stop offset="0.93" stop-color="#CCCBCC" stop-opacity="1"/>
		<stop offset="1" stop-color="#DDDEDE" stop-opacity="1"/>
	</radialGradient>
	<path fill="url(#SVGID_Fill18_)" stroke-linejoin="round" d="M 650.717,280.36C 645.391,282.933 641.468,291.533 640.28,304.907L 642.725,304.84C 643.787,294.387 646.705,286.867 650.155,286.867L 650.155,286.867C 654.489,286.867 658.008,298.815 658.008,313.535L 658.008,313.535C 658.008,328.253 654.489,340.215 650.155,340.215L 650.155,340.215C 649.139,340.215 648.181,339.56 647.293,338.4L 647.293,338.4C 646.891,339.905 646.601,341.535 646.393,343.227L 646.393,343.227C 647.72,345.148 649.173,346.48 650.717,347.187L 650.717,347.187C 654.687,348.72 661.503,349 665.481,346.453L 665.481,346.453C 671.652,342.133 676.289,331.493 676.289,313.04L 676.289,313.04C 676.289,294.601 670.867,283.215 665.481,280.36L 665.481,280.36C 664.332,279.607 661.281,279.249 658.213,279.249L 658.213,279.249C 655.033,279.249 651.833,279.633 650.717,280.36 Z "/>
	<radialGradient id="SVGID_Fill19_" cx="686.957" cy="312.573" r="44.7627" gradientUnits="userSpaceOnUse">
		<stop offset="0" stop-color="#FFFFFF" stop-opacity="1"/>
		<stop offset="0.73" stop-color="#333333" stop-opacity="1"/>
		<stop offset="1" stop-color="#C9C9C9" stop-opacity="1"/>
	</radialGradient>
	<path fill="url(#SVGID_Fill19_)" stroke-linejoin="round" d="M 642.725,304.84L 654.629,304.519C 654.929,301.32 655.412,298.387 656.024,295.852L 656.024,295.852C 654.593,290.333 652.483,286.867 650.155,286.867L 650.155,286.867C 646.705,286.867 643.787,294.387 642.725,304.84 Z M 655.067,327.093C 651.053,329.507 648.608,333.412 647.293,338.4L 647.293,338.4C 648.181,339.56 649.139,340.215 650.155,340.215L 650.155,340.215C 652.587,340.215 654.767,336.427 656.209,330.493L 656.209,330.493C 655.92,329.4 655.667,328.239 655.436,327L 655.436,327C 655.32,327.027 655.195,327.067 655.067,327.093 Z "/>
	<radialGradient id="SVGID_Fill20_" cx="729.758" cy="310.173" r="52.5469" gradientUnits="userSpaceOnUse">
		<stop offset="0" stop-color="#FFFFFF" stop-opacity="1"/>
		<stop offset="0.49" stop-color="#EBEAEB" stop-opacity="1"/>
		<stop offset="0.71" stop-color="#EDEDED" stop-opacity="1"/>
		<stop offset="0.8" stop-color="#F5F4F4" stop-opacity="1"/>
		<stop offset="0.87" stop-color="#D9D9D9" stop-opacity="1"/>
		<stop offset="0.93" stop-color="#CCCBCC" stop-opacity="1"/>
		<stop offset="1" stop-color="#DDDEDE" stop-opacity="1"/>
	</radialGradient>
	<path fill="url(#SVGID_Fill20_)" stroke-linejoin="round" d="M 758.937,277.16C 752.525,280.267 748.143,292.12 748.143,310.56L 748.143,310.973L 750.529,310.893L 750.529,310.32C 750.529,295.6 754.048,283.653 758.383,283.653L 758.383,283.653C 762.709,283.653 766.239,295.6 766.239,310.32L 766.239,310.32C 766.239,325.053 762.709,337 758.383,337L 758.383,337C 756.988,337 755.673,335.761 754.543,333.601L 754.543,333.601C 754.14,335.24 753.955,337.053 753.989,339.053L 753.989,339.053C 755.477,341.48 757.161,343.16 758.937,343.973L 758.937,343.973C 762.917,345.507 769.733,345.787 773.712,343.239L 773.712,343.239C 779.883,338.92 784.519,328.28 784.519,309.84L 784.519,309.84C 784.519,291.399 779.097,280 773.712,277.16L 773.712,277.16C 772.556,276.4 769.504,276.04 766.436,276.04L 766.436,276.04C 763.256,276.04 760.059,276.427 758.937,277.16 Z "/>
	<radialGradient id="SVGID_Fill21_" cx="795.187" cy="309.359" r="44.7627" gradientUnits="userSpaceOnUse">
		<stop offset="0" stop-color="#FFFFFF" stop-opacity="1"/>
		<stop offset="0.73" stop-color="#333333" stop-opacity="1"/>
		<stop offset="1" stop-color="#C9C9C9" stop-opacity="1"/>
	</radialGradient>
	<path fill="url(#SVGID_Fill21_)" stroke-linejoin="round" d="M 750.529,310.32L 750.529,310.893L 762.467,310.493L 762.467,309.601C 762.467,303.16 763.135,297.255 764.253,292.64L 764.253,292.64C 762.824,287.133 760.713,283.653 758.383,283.653L 758.383,283.653C 754.048,283.653 750.529,295.6 750.529,310.32 Z M 754.543,333.601C 755.673,335.761 756.988,337 758.383,337L 758.383,337C 760.817,337 762.997,333.213 764.439,327.28L 764.439,327.28C 764.151,326.2 763.897,325.025 763.667,323.787L 763.667,323.787C 759.225,324.867 755.824,328.267 754.543,333.601 Z "/>
	<radialGradient id="SVGID_Fill22_" cx="712.988" cy="310.534" r="52.547" gradientUnits="userSpaceOnUse">
		<stop offset="0" stop-color="#FFFFFF" stop-opacity="1"/>
		<stop offset="0.49" stop-color="#EBEAEB" stop-opacity="1"/>
		<stop offset="0.71" stop-color="#EDEDED" stop-opacity="1"/>
		<stop offset="0.8" stop-color="#F5F4F4" stop-opacity="1"/>
		<stop offset="0.87" stop-color="#D9D9D9" stop-opacity="1"/>
		<stop offset="0.93" stop-color="#CCCBCC" stop-opacity="1"/>
		<stop offset="1" stop-color="#DDDEDE" stop-opacity="1"/>
	</radialGradient>
	<path fill="url(#SVGID_Fill22_)" stroke-linejoin="round" d="M 742.168,277.519C 736.84,280.095 732.917,288.68 731.729,302.053L 734.176,301.987C 735.236,291.533 738.153,284.013 741.603,284.013L 741.603,284.013C 745.939,284.013 749.457,295.96 749.457,310.68L 749.457,310.68C 749.457,325.413 745.939,337.36 741.603,337.36L 741.603,337.36C 740.588,337.36 739.631,336.72 738.743,335.548L 738.743,335.548C 738.339,337.067 738.051,338.68 737.843,340.373L 737.843,340.373C 739.169,342.292 740.621,343.625 742.168,344.333L 742.168,344.333C 746.135,345.867 752.952,346.147 756.931,343.6L 756.931,343.6C 763.1,339.28 767.737,328.64 767.737,310.201L 767.737,310.201C 767.737,291.76 762.317,280.36 756.931,277.519L 756.931,277.519C 755.78,276.76 752.727,276.4 749.656,276.4L 749.656,276.4C 746.477,276.4 743.283,276.787 742.168,277.519 Z "/>
	<radialGradient id="SVGID_Fill23_" cx="778.406" cy="309.72" r="44.7627" gradientUnits="userSpaceOnUse">
		<stop offset="0" stop-color="#FFFFFF" stop-opacity="1"/>
		<stop offset="0.73" stop-color="#333333" stop-opacity="1"/>
		<stop offset="1" stop-color="#C9C9C9" stop-opacity="1"/>
	</radialGradient>
	<path fill="url(#SVGID_Fill23_)" stroke-linejoin="round" d="M 734.176,301.987L 746.077,301.667C 746.377,298.48 746.861,295.547 747.473,293L 747.473,293C 746.044,287.493 743.933,284.013 741.603,284.013L 741.603,284.013C 738.153,284.013 735.236,291.533 734.176,301.987 Z M 746.515,324.24C 742.503,326.655 740.057,330.573 738.743,335.548L 738.743,335.548C 739.631,336.72 740.588,337.36 741.603,337.36L 741.603,337.36C 744.036,337.36 746.216,333.573 747.657,327.64L 747.657,327.64C 747.369,326.56 747.115,325.387 746.885,324.148L 746.885,324.148C 746.769,324.185 746.643,324.213 746.515,324.24 Z "/>
	<g>
		<defs>
			<rect id="SVG_CLIPPER3_" x="0" y="6.10352e-005" width="1133.85" height="1133.85"/>
		</defs>
		<clipPath id="SVG_CLIPPER4_">
			<use xlink:href="#SVG_CLIPPER3_" overflow="visible"/>
		</clipPath>
		<g clip-path="url(#SVG_CLIPPER4_)">
			<path fill="#727272" fill-opacity="1" fill-rule="evenodd" stroke-linejoin="round" d="M 459.891,458.363C 459.953,461.029 459.641,463.592 458.974,466.009C 458.286,468.425 457.286,470.467 455.953,472.113C 455.12,473.154 454.224,474.092 453.245,474.967C 452.245,475.842 451.161,476.592 449.974,477.217C 448.745,477.842 447.432,478.342 446.016,478.717C 444.599,479.092 442.995,479.321 441.224,479.363L 434.724,479.571L 435.141,498.279L 422.724,498.654L 421.432,441.488L 440.62,440.904C 443.453,440.821 445.932,441.029 448.016,441.571C 450.099,442.113 452.016,443.009 453.724,444.259C 455.599,445.654 457.078,447.529 458.161,449.884C 459.245,452.238 459.807,455.071 459.891,458.363 Z M 447.161,459.113C 447.12,457.509 446.745,456.134 446.057,454.988C 445.349,453.842 444.536,453.071 443.62,452.654C 442.411,452.092 441.286,451.779 440.203,451.717C 439.12,451.675 437.661,451.675 435.828,451.717L 434.078,451.779L 434.474,468.904L 435.328,468.863C 436.495,468.842 437.599,468.8 438.641,468.738C 439.682,468.675 440.578,468.55 441.37,468.384C 442.036,468.259 442.724,467.988 443.453,467.592C 444.182,467.196 444.745,466.759 445.161,466.279C 445.953,465.321 446.495,464.321 446.786,463.279C 447.078,462.238 447.203,460.863 447.161,459.113 Z "/>
			<path fill="#727272" fill-opacity="1" fill-rule="evenodd" stroke-linejoin="round" d="M 513.244,495.903L 498.098,496.361L 483.827,475.798L 479.39,475.944L 479.869,496.923L 467.515,497.298L 466.223,440.132L 486.098,439.528C 488.848,439.444 491.244,439.569 493.286,439.903C 495.327,440.236 497.223,441.007 498.994,442.194C 500.786,443.444 502.244,445.069 503.327,447.048C 504.411,449.048 504.973,451.59 505.057,454.673C 505.14,459.048 504.369,462.632 502.744,465.403C 501.098,468.173 498.869,470.403 496.057,472.09L 513.244,495.903 Z M 492.348,456.84C 492.307,455.423 492.057,454.194 491.557,453.173C 491.057,452.153 490.244,451.382 489.119,450.84C 488.327,450.486 487.473,450.278 486.515,450.194C 485.557,450.132 484.369,450.111 482.952,450.153L 478.807,450.278L 479.161,465.673L 482.702,465.548C 484.432,465.507 485.89,465.361 487.098,465.069C 488.286,464.778 489.307,464.236 490.14,463.423C 490.911,462.673 491.473,461.798 491.848,460.798C 492.223,459.798 492.39,458.465 492.348,456.84 Z "/>
			<path fill="#727272" fill-opacity="1" fill-rule="evenodd" stroke-linejoin="round" d="M 561.385,465.842C 561.593,475.092 559.614,482.446 555.468,487.862C 551.302,493.3 545.51,496.112 538.073,496.342C 530.614,496.55 524.698,494.071 520.323,488.842C 515.948,483.612 513.677,476.425 513.468,467.3C 513.26,458.133 515.218,450.8 519.343,445.321C 523.468,439.862 529.281,437.008 536.739,436.779C 544.177,436.571 550.093,439.05 554.489,444.237C 558.864,449.425 561.177,456.633 561.385,465.842 Z M 548.573,466.196C 548.489,462.821 548.114,459.925 547.448,457.55C 546.781,455.175 545.927,453.237 544.885,451.737C 543.781,450.196 542.552,449.112 541.198,448.487C 539.843,447.862 538.448,447.55 537.01,447.592C 535.468,447.633 534.093,447.987 532.864,448.654C 531.635,449.321 530.468,450.487 529.364,452.112C 528.364,453.633 527.593,455.633 527.01,458.112C 526.427,460.592 526.198,463.529 526.281,466.904C 526.364,470.425 526.718,473.342 527.385,475.633C 528.031,477.946 528.885,479.862 529.968,481.362C 531.052,482.925 532.281,484.029 533.656,484.654C 535.031,485.3 536.427,485.592 537.885,485.55C 539.343,485.508 540.739,485.112 542.093,484.342C 543.448,483.571 544.614,482.404 545.593,480.821C 546.614,479.112 547.385,477.154 547.906,474.925C 548.427,472.717 548.656,469.8 548.573,466.196 Z "/>
			<path fill="#727272" fill-opacity="1" fill-rule="evenodd" stroke-linejoin="round" d="M 584.797,494.773C 581.005,494.898 577.651,494.565 574.776,493.815C 571.88,493.065 569.192,492.086 566.734,490.898L 566.442,477.294L 567.547,477.273C 570.088,479.627 572.859,481.419 575.88,482.627C 578.901,483.836 581.817,484.398 584.63,484.315C 585.338,484.315 586.255,484.19 587.422,483.982C 588.567,483.773 589.505,483.461 590.213,483.044C 591.067,482.586 591.776,481.94 592.359,481.148C 592.942,480.357 593.213,479.336 593.192,478.044C 593.151,476.627 592.651,475.461 591.651,474.586C 590.651,473.711 589.484,473.107 588.109,472.732C 586.401,472.273 584.588,471.836 582.672,471.44C 580.755,471.044 578.963,470.523 577.297,469.898C 573.422,468.461 570.609,466.461 568.901,463.877C 567.192,461.294 566.276,458.023 566.192,454.044C 566.067,448.69 567.942,444.294 571.776,440.857C 575.609,437.44 580.463,435.627 586.338,435.44C 589.297,435.357 592.234,435.627 595.151,436.211C 598.067,436.815 600.692,437.669 603.026,438.773L 603.317,451.836L 602.255,451.877C 600.338,450.127 598.067,448.648 595.401,447.482C 592.734,446.315 590.005,445.752 587.213,445.836C 586.13,445.877 585.151,446.002 584.297,446.19C 583.422,446.398 582.526,446.752 581.588,447.294C 580.817,447.752 580.172,448.377 579.63,449.211C 579.088,450.044 578.817,450.94 578.838,451.94C 578.88,453.398 579.359,454.544 580.276,455.377C 581.192,456.211 582.942,456.919 585.526,457.523C 587.172,457.919 588.776,458.294 590.338,458.669C 591.88,459.044 593.547,459.544 595.317,460.19C 598.776,461.523 601.359,463.357 603.088,465.732C 604.817,468.107 605.734,471.273 605.838,475.232C 605.963,480.919 604.13,485.544 600.338,489.127C 596.547,492.711 591.38,494.565 584.797,494.773 Z "/>
			<path fill="#727272" fill-opacity="1" fill-rule="evenodd" stroke-linejoin="round" d="M 637.305,492.154L 610.66,492.946L 610.43,482.967L 617.535,482.758L 616.701,445.55L 609.597,445.758L 609.368,435.779L 636.014,434.987L 636.243,444.967L 629.118,445.175L 629.951,482.383L 637.076,482.175L 637.305,492.154 Z "/>
			<path fill="#727272" fill-opacity="1" fill-rule="evenodd" stroke-linejoin="round" d="M 687.963,490.616L 676.005,490.97L 656.047,451.699L 656.942,491.553L 645.588,491.907L 644.297,434.741L 659.526,434.261L 676.047,466.532L 675.317,433.803L 686.672,433.449L 687.963,490.616 Z "/>
			<path fill="#727272" fill-opacity="1" fill-rule="evenodd" stroke-linejoin="round" d="M 698.117,490.317L 696.825,433.15L 730.263,432.129L 730.513,443.025L 709.43,443.671L 709.659,453.692L 729.075,453.088L 729.305,463.984L 709.888,464.588L 710.221,479.025L 731.305,478.379L 731.555,489.296L 698.117,490.317 Z "/>
			<path fill="#727272" fill-opacity="1" fill-rule="evenodd" stroke-linejoin="round" d="M 761.378,489.506C 753.961,489.714 748.003,487.318 743.524,482.277C 739.045,477.235 736.711,470.006 736.503,460.589C 736.295,451.548 738.316,444.256 742.566,438.735C 746.816,433.214 752.649,430.339 760.066,430.11C 762.045,430.048 763.816,430.11 765.399,430.318C 766.961,430.527 768.461,430.839 769.92,431.256C 771.066,431.631 772.316,432.11 773.67,432.735C 775.003,433.36 776.086,433.902 776.92,434.36L 777.232,447.985L 775.982,448.027C 775.357,447.443 774.586,446.735 773.67,445.902C 772.732,445.068 771.67,444.277 770.503,443.485C 769.336,442.693 768.045,442.048 766.649,441.506C 765.232,440.964 763.795,440.735 762.295,440.777C 760.503,440.839 758.857,441.214 757.378,441.902C 755.899,442.61 754.503,443.777 753.191,445.423C 751.982,446.923 751.003,448.943 750.295,451.443C 749.566,453.943 749.232,456.881 749.316,460.235C 749.399,463.798 749.878,466.777 750.753,469.173C 751.628,471.589 752.753,473.506 754.107,474.943C 755.399,476.339 756.857,477.339 758.461,477.923C 760.066,478.506 761.67,478.777 763.253,478.735C 764.878,478.693 766.42,478.318 767.899,477.652C 769.357,476.985 770.586,476.256 771.586,475.423C 772.67,474.61 773.628,473.777 774.461,472.923C 775.274,472.089 775.982,471.339 776.607,470.673L 777.732,470.631L 778.045,484.068C 777.149,484.589 776.107,485.173 774.941,485.839C 773.753,486.506 772.524,487.089 771.274,487.548C 769.732,488.152 768.274,488.61 766.941,488.923C 765.607,489.214 763.753,489.423 761.378,489.506 Z "/>
			<path fill="#727272" fill-opacity="1" fill-rule="evenodd" stroke-linejoin="round" d="M 590.695,644.117L 591.195,660.93L 536.32,663.138C 536.695,656.763 538.299,650.68 541.091,644.867C 543.883,639.075 549.528,631.284 558.028,621.513C 564.841,613.638 569.008,608.325 570.549,605.534C 572.591,601.721 573.549,597.992 573.466,594.325C 573.341,590.284 572.299,587.221 570.341,585.138C 568.383,583.055 565.778,582.055 562.487,582.18C 559.195,582.325 556.633,583.575 554.778,585.93C 552.903,588.284 551.903,592.096 551.778,597.388L 536.133,596.221C 536.737,586.221 539.424,578.95 544.216,574.409C 549.008,569.888 555.07,567.471 562.445,567.159C 570.487,566.846 576.903,569.096 581.653,573.93C 586.403,578.763 588.883,584.93 589.133,592.388C 589.258,596.659 588.716,600.742 587.508,604.617C 586.299,608.513 584.32,612.617 581.612,616.93C 579.778,619.825 576.487,623.992 571.716,629.409C 566.945,634.846 563.924,638.45 562.653,640.221C 561.362,642.013 560.362,643.721 559.612,645.367L 590.695,644.117 Z "/>
			<path fill="#727272" fill-opacity="1" fill-rule="evenodd" stroke-linejoin="round" d="M 633.095,659.238L 632.511,640.238L 599.095,641.592L 598.616,625.738L 632.241,564.342L 645.386,563.821L 647.178,623.717L 657.324,623.301L 657.803,639.217L 647.657,639.634L 648.241,658.634L 633.095,659.238 Z M 632.032,624.321L 631.074,592.051L 613.261,625.092L 632.032,624.321 Z "/>
			<path fill="#727272" fill-opacity="1" fill-rule="evenodd" stroke-linejoin="round" d="M 669.828,657.755L 669.286,639.672L 684.953,639.047L 685.494,657.13L 669.828,657.755 Z "/>
		</g>
	</g>
</svg>
