<?xml version="1.0" encoding="utf-8"?>
<!-- Generator: Adobe Illustrator 17.1.0, SVG Export Plug-In . SVG Version: 6.00 Build 0)  -->
<!DOCTYPE svg PUBLIC "-//W3C//DTD SVG 1.1//EN" "http://www.w3.org/Graphics/SVG/1.1/DTD/svg11.dtd">
<svg version="1.1" id="Vrstva_1" xmlns="http://www.w3.org/2000/svg" xmlns:xlink="http://www.w3.org/1999/xlink" x="0px" y="0px"
	 viewBox="0 0 496 436.2" enable-background="new 0 0 496 436.2" xml:space="preserve">
<polygon fill-rule="evenodd" clip-rule="evenodd" fill="#B2B2B2" points="115.7,436.2 115.1,430.5 495.5,418.8 496,424 "/>
<linearGradient id="SVGID_1_" gradientUnits="userSpaceOnUse" x1="71.7723" y1="383.6473" x2="61.3881" y2="408.743">
	<stop  offset="0" style="stop-color:#BABABA"/>
	<stop  offset="1" style="stop-color:#EEEDED"/>
</linearGradient>
<polygon fill-rule="evenodd" clip-rule="evenodd" fill="url(#SVGID_1_)" points="2.9,400.1 113.6,432.5 117.9,391.4 "/>
<linearGradient id="SVGID_2_" gradientUnits="userSpaceOnUse" x1="122.461" y1="196.2571" x2="54.7187" y2="187.7893">
	<stop  offset="0" style="stop-color:#8B371D"/>
	<stop  offset="1" style="stop-color:#D06644"/>
</linearGradient>
<polygon fill-rule="evenodd" clip-rule="evenodd" fill="url(#SVGID_2_)" points="449.1,18.4 454.1,387 2.8,400 67,29.6 "/>
<linearGradient id="SVGID_3_" gradientUnits="userSpaceOnUse" x1="2.8812" y1="401.2872" x2="126.0808" y2="396.7115">
	<stop  offset="0" style="stop-color:#C3C2C2"/>
	<stop  offset="1" style="stop-color:#8F8F8F"/>
</linearGradient>
<polygon fill-rule="evenodd" clip-rule="evenodd" fill="url(#SVGID_3_)" points="4.3,400.5 2.8,400.1 3,399.1 383.6,384.5 
	384.2,389.8 "/>
<polygon fill-rule="evenodd" clip-rule="evenodd" fill="#F2F2F2" points="67,30 112.9,433.1 495.7,420.7 449.9,17.6 "/>
<path fill-rule="evenodd" clip-rule="evenodd" fill="#F2F2F2" d="M449.6,17.1l-380.4,13C74.6,73.5,454,67.3,449.6,17.1z"/>
<path fill-rule="evenodd" clip-rule="evenodd" fill="#F2F2F2" d="M69.2,30.1c4.9,39,384,32.3,380.4-13L69.2,30.1z"/>
<path fill-rule="evenodd" clip-rule="evenodd" fill="#F2F2F2" d="M69.2,30.1c4.4,34.6,383.2,27.3,380.4-13L69.2,30.1z"/>
<path fill-rule="evenodd" clip-rule="evenodd" fill="#F0F0F0" d="M69.2,30.1c4,30.2,382.4,22.3,380.4-13L69.2,30.1z"/>
<path fill-rule="evenodd" clip-rule="evenodd" fill="#F0F0F0" d="M69.2,30.1c3.5,25.8,381.6,17.3,380.4-13L69.2,30.1z"/>
<path fill-rule="evenodd" clip-rule="evenodd" fill="#F0F0F0" d="M69.2,30.1c3,21.4,380.8,12.4,380.4-13L69.2,30.1z"/>
<path fill-rule="evenodd" clip-rule="evenodd" fill="#EEEDED" d="M69.2,30.1c2.5,17,380,7.4,380.4-13L69.2,30.1z"/>
<path fill-rule="evenodd" clip-rule="evenodd" fill="#E9E8E8" d="M69.2,30.1c2,12.6,379.2,2.4,380.4-13L69.2,30.1z"/>
<path fill-rule="evenodd" clip-rule="evenodd" fill="#E0E0E0" d="M69.2,30.1c1.5,8.1,378.4-2.5,380.4-13L69.2,30.1z"/>
<path fill-rule="evenodd" clip-rule="evenodd" fill="#D9D9D9" d="M449.6,17.1l-380.4,13C70.3,33.8,446.8,22.6,449.6,17.1z"/>
<path fill-rule="evenodd" clip-rule="evenodd" fill="#E3E3E3" d="M127.1,38.9c9.4-0.3,17.7,9.1,18.6,21c0.9,11.9-5.9,21.7-15.3,22
	c-9.4,0.3-17.7-9.1-18.6-21C110.9,49.1,117.8,39.2,127.1,38.9z"/>
<path fill-rule="evenodd" clip-rule="evenodd" fill="#FFFFFF" d="M127.2,41.8c9.4-0.3,17.7,9.1,18.6,21c0.9,11.9-5.9,21.7-15.3,22
	c-9.4,0.3-17.7-9.1-18.6-21C111,52,117.8,42.1,127.2,41.8z"/>
<path fill-rule="evenodd" clip-rule="evenodd" fill="#FFFFFF" d="M116.6,77.8c2.5,1.5,5.2,2.3,8,2.2c9.4-0.3,16.2-10.1,15.3-22
	c-0.4-4.5-1.7-8.6-3.8-11.9c5.1,2.4,9.9,9.9,10.6,18.8c0.9,11.9-5.9,21.7-15.3,22C125.6,87,120.1,83.4,116.6,77.8z"/>
<path fill-rule="evenodd" clip-rule="evenodd" fill="#A3472B" d="M115.8,75.8c2.5,1.5,5.2,2.3,8,2.2c9.4-0.3,16.2-10.1,15.3-22
	c-0.3-4.5-1.7-8.6-3.8-11.9c5,2.4,9.9,9.9,10.6,18.8c0.9,11.9-5.9,21.7-15.3,22C124.7,85,119.3,81.4,115.8,75.8z"/>
<g>
	<path fill-rule="evenodd" clip-rule="evenodd" fill="#E3E3E3" d="M195.9,37.8c9.4-0.3,17.7,9.1,18.6,21c0.9,11.9-5.9,21.7-15.3,22
		c-9.4,0.3-17.7-9.1-18.6-21C179.7,47.9,186.6,38.1,195.9,37.8z"/>
	<path fill-rule="evenodd" clip-rule="evenodd" fill="#FFFFFF" d="M196,40.7c9.4-0.3,17.7,9.1,18.6,21c0.9,11.9-5.9,21.7-15.3,22
		c-9.4,0.3-17.7-9.1-18.6-21C179.8,50.9,186.6,41,196,40.7z"/>
</g>
<g>
	<path fill-rule="evenodd" clip-rule="evenodd" fill="#E3E3E3" d="M264.5,34.7c9.4-0.3,17.7,9.1,18.6,21c0.9,11.9-5.9,21.7-15.3,22
		c-9.4,0.3-17.7-9.1-18.6-21C248.3,44.9,255.2,35,264.5,34.7z"/>
	<path fill-rule="evenodd" clip-rule="evenodd" fill="#FFFFFF" d="M264.6,37.7c9.4-0.3,17.7,9.1,18.6,21c0.9,11.9-5.9,21.7-15.3,22
		c-9.4,0.3-17.7-9.1-18.6-21C248.4,47.8,255.3,38,264.6,37.7z"/>
</g>
<g>
	<path fill-rule="evenodd" clip-rule="evenodd" fill="#E3E3E3" d="M333.3,33.6c9.4-0.3,17.7,9.1,18.6,21c0.9,11.9-5.9,21.7-15.3,22
		c-9.4,0.3-17.7-9.1-18.6-21C317.1,43.8,324,33.9,333.3,33.6z"/>
	<path fill-rule="evenodd" clip-rule="evenodd" fill="#FFFFFF" d="M333.4,36.6c9.4-0.3,17.7,9.1,18.6,21c0.9,11.9-5.9,21.7-15.3,22
		c-9.4,0.3-17.7-9.1-18.6-21C317.2,46.7,324.1,36.8,333.4,36.6z"/>
</g>
<g>
	<path fill-rule="evenodd" clip-rule="evenodd" fill="#E3E3E3" d="M401.8,31.6c9.4-0.3,17.7,9.1,18.6,21c0.9,11.9-5.9,21.7-15.3,22
		c-9.4,0.3-17.7-9.1-18.6-21C385.6,41.7,392.4,31.8,401.8,31.6z"/>
	<path fill-rule="evenodd" clip-rule="evenodd" fill="#FFFFFF" d="M401.9,34.5c9.4-0.3,17.7,9.1,18.6,21c0.9,11.9-5.9,21.7-15.3,22
		c-9.4,0.3-17.7-9.1-18.6-21C385.7,44.6,392.5,34.8,401.9,34.5z"/>
</g>
<polygon fill-rule="evenodd" clip-rule="evenodd" fill="#EBEBEB" points="135.1,183.3 134.5,177.6 432.5,167.1 433,172.3 "/>
<path fill-rule="evenodd" clip-rule="evenodd" fill="#F2F2F2" d="M115.3,433.6l380.4-13C486,341.8,106.4,346.9,115.3,433.6z"/>
<path fill-rule="evenodd" clip-rule="evenodd" fill="#F2F2F2" d="M495.7,420.7c-8.8-70.6-388.1-64.8-380.4,13L495.7,420.7z"/>
<path fill-rule="evenodd" clip-rule="evenodd" fill="#F2F2F2" d="M495.7,420.7c-7.8-62.2-386.7-55.7-380.4,13L495.7,420.7z"/>
<path fill-rule="evenodd" clip-rule="evenodd" fill="#F0F0F0" d="M495.7,420.7c-6.9-53.8-385.4-46.7-380.4,13L495.7,420.7z"/>
<path fill-rule="evenodd" clip-rule="evenodd" fill="#F0F0F0" d="M495.7,420.7c-5.9-45.5-384.1-37.7-380.4,13L495.7,420.7z"/>
<path fill-rule="evenodd" clip-rule="evenodd" fill="#F0F0F0" d="M495.7,420.7c-4.9-37.1-382.8-28.6-380.4,13L495.7,420.7z"/>
<path fill-rule="evenodd" clip-rule="evenodd" fill="#EEEDED" d="M495.7,420.7c-4-28.8-381.5-19.6-380.4,13L495.7,420.7z"/>
<path fill-rule="evenodd" clip-rule="evenodd" fill="#E9E8E8" d="M495.7,420.7c-3-20.4-380.2-10.6-380.4,13L495.7,420.7z"/>
<path fill-rule="evenodd" clip-rule="evenodd" fill="#E0E0E0" d="M495.7,420.7c-2-12.1-378.9-1.5-380.4,13L495.7,420.7z"/>
<path fill-rule="evenodd" clip-rule="evenodd" fill="#D9D9D9" d="M115.3,433.6l380.4-13C494.7,416.9,118.1,428.2,115.3,433.6z"/>
<path fill-rule="evenodd" clip-rule="evenodd" fill="#A3A3A3" d="M178.6,331.9v0.4c0,1.4,1,2.5,2.2,2.4l10.2-0.3
	c1.2,0,2.2-1.2,2.2-2.6v-0.4c0-1.4-1-2.5-2.2-2.4l-10.2,0.3C179.5,329.4,178.6,330.5,178.6,331.9z"/>
<path fill-rule="evenodd" clip-rule="evenodd" fill="#A3A3A3" d="M196.8,331.4v0.4c0,1.4,1,2.5,2.2,2.4l17.1-0.5
	c1.2,0,2.2-1.2,2.2-2.6v-0.4c0-1.4-1-2.5-2.2-2.4l-17.1,0.5C197.8,328.8,196.8,330,196.8,331.4z"/>
<path fill-rule="evenodd" clip-rule="evenodd" fill="#A3A3A3" d="M227.1,330.8v0.4c0,1.4,1,2.5,2.2,2.4l9.5-0.3
	c1.2,0,2.2-1.2,2.2-2.5v-0.4c0-1.4-1-2.5-2.2-2.4l-9.5,0.3C228.1,328.2,227.1,329.4,227.1,330.8z"/>
<path fill-rule="evenodd" clip-rule="evenodd" fill="#A3A3A3" d="M264.3,329.4v0.4c0,1.4,1,2.5,2.2,2.4l7-0.2c1.2,0,2.2-1.2,2.2-2.5
	V329c0-1.4-1-2.5-2.2-2.4l-7,0.2C265.2,326.8,264.3,328,264.3,329.4z"/>
<path fill-rule="evenodd" clip-rule="evenodd" fill="#A3A3A3" d="M245.4,330.2v0.4c0,1.4,1,2.5,2.2,2.4l9.5-0.3
	c1.2,0,2.2-1.2,2.2-2.5v-0.4c0-1.4-1-2.5-2.2-2.4l-9.5,0.3C246.3,327.7,245.4,328.9,245.4,330.2z"/>
<path fill-rule="evenodd" clip-rule="evenodd" fill="#A3A3A3" d="M169.1,344.1v0.4c0,1.4,1,2.5,2.2,2.4l9.5-0.3
	c1.2,0,2.2-1.2,2.2-2.6v-0.4c0-1.4-1-2.5-2.2-2.4l-9.5,0.3C170.1,341.6,169.1,342.8,169.1,344.1z"/>
<path fill-rule="evenodd" clip-rule="evenodd" fill="#A3A3A3" d="M206.9,343v0.4c0,1.4,1,2.5,2.2,2.4l7-0.2c1.2,0,2.2-1.2,2.2-2.5
	v-0.4c0-1.4-1-2.5-2.2-2.4l-7,0.2C207.9,340.5,206.9,341.6,206.9,343z"/>
<path fill-rule="evenodd" clip-rule="evenodd" fill="#A3A3A3" d="M222,342.9v0.4c0,1.4,1,2.5,2.2,2.4l14.6-0.4
	c1.2,0,2.2-1.2,2.2-2.6v-0.4c0-1.4-1-2.5-2.2-2.4l-14.6,0.4C223,340.4,222,341.5,222,342.9z"/>
<path fill-rule="evenodd" clip-rule="evenodd" fill="#A3A3A3" d="M245.4,342.2v0.4c0,1.4,1,2.5,2.2,2.4l12.7-0.4
	c1.2,0,2.2-1.2,2.2-2.5v-0.4c0-1.4-1-2.5-2.2-2.4l-12.7,0.4C246.3,339.7,245.4,340.8,245.4,342.2z"/>
<path fill-rule="evenodd" clip-rule="evenodd" fill="#A3A3A3" d="M189.9,343.5v0.4c0,1.4,1,2.5,2.2,2.4l7-0.2c1.2,0,2.2-1.2,2.2-2.5
	v-0.4c0-1.4-1-2.5-2.2-2.4l-7,0.2C190.9,341,189.9,342.1,189.9,343.5z"/>
<path fill-rule="evenodd" clip-rule="evenodd" fill="#A3A3A3" d="M169.1,356.3v0.4c0,1.4,1,2.5,2.2,2.4l11.4-0.3
	c1.2,0,2.2-1.2,2.2-2.5v-0.4c0-1.4-1-2.5-2.2-2.4l-11.4,0.3C170.1,353.8,169.1,355,169.1,356.3z"/>
<path fill-rule="evenodd" clip-rule="evenodd" fill="#A3A3A3" d="M198.7,355.5v0.4c0,1.4,1,2.5,2.2,2.4l13.3-0.4
	c1.2,0,2.2-1.2,2.2-2.6v-0.4c0-1.4-1-2.5-2.2-2.4l-13.3,0.4C199.7,352.9,198.7,354.1,198.7,355.5z"/>
<path fill-rule="evenodd" clip-rule="evenodd" fill="#A3A3A3" d="M227.1,354.9v0.4c0,1.4,1,2.5,2.2,2.4l9.5-0.3
	c1.2,0,2.2-1.2,2.2-2.5v-0.4c0-1.4-1-2.5-2.2-2.4l-9.5,0.3C228.1,352.4,227.1,353.5,227.1,354.9z"/>
<path fill-rule="evenodd" clip-rule="evenodd" fill="#A3A3A3" d="M267.4,353.4v0.4c0,1.4,1,2.5,2.2,2.4l3.9-0.1
	c1.2,0,2.2-1.2,2.2-2.5v-0.4c0-1.4-1-2.5-2.2-2.4l-3.9,0.1C268.4,350.9,267.4,352.1,267.4,353.4z"/>
<path fill-rule="evenodd" clip-rule="evenodd" fill="#A3A3A3" d="M245.4,354.4v0.4c0,1.4,1,2.5,2.2,2.4l3.3-0.1
	c1.2,0,2.2-1.2,2.2-2.6v-0.4c0-1.4-1-2.5-2.2-2.4l-3.3,0.1C246.3,351.9,245.4,353,245.4,354.4z"/>
<path fill-rule="evenodd" clip-rule="evenodd" fill="#A3A3A3" d="M169.1,368.3v0.4c0,1.4,1,2.5,2.2,2.4l3.3-0.1
	c1.2,0,2.2-1.2,2.2-2.6v-0.4c0-1.4-1-2.5-2.2-2.4l-3.3,0.1C170.1,365.8,169.1,366.9,169.1,368.3z"/>
<path fill-rule="evenodd" clip-rule="evenodd" fill="#A3A3A3" d="M206.9,367.2v0.4c0,1.4,1,2.5,2.2,2.4l5.8-0.2
	c1.2,0,2.2-1.2,2.2-2.5v-0.4c0-1.4-1-2.5-2.2-2.4l-5.8,0.2C207.9,364.6,206.9,365.8,206.9,367.2z"/>
<path fill-rule="evenodd" clip-rule="evenodd" fill="#A3A3A3" d="M231.5,366.7v0.4c0,1.4,1,2.5,2.2,2.4l5.1-0.2
	c1.2,0,2.2-1.2,2.2-2.6v-0.4c0-1.4-1-2.5-2.2-2.4l-5.1,0.1C232.5,364.2,231.5,365.4,231.5,366.7z"/>
<path fill-rule="evenodd" clip-rule="evenodd" fill="#A3A3A3" d="M268,365.4v0.4c0,1.4,1,2.5,2.2,2.4l3.3-0.1c1.2,0,2.2-1.2,2.2-2.6
	v-0.4c0-1.4-1-2.5-2.2-2.4l-3.3,0.1C269,362.8,268,364,268,365.4z"/>
<path fill-rule="evenodd" clip-rule="evenodd" fill="#A3A3A3" d="M251,366.2v0.4c0,1.4,1,2.5,2.2,2.4l8.3-0.3c1.2,0,2.2-1.2,2.2-2.5
	v-0.4c0-1.4-1-2.5-2.2-2.4l-8.3,0.3C252,363.6,251,364.8,251,366.2z"/>
<path fill-rule="evenodd" clip-rule="evenodd" fill="#A3A3A3" d="M189.9,367.7v0.4c0,1.4,1,2.5,2.2,2.4l7-0.2c1.2,0,2.2-1.2,2.2-2.5
	v-0.4c0-1.4-1-2.5-2.2-2.4l-7,0.2C190.9,365.2,189.9,366.3,189.9,367.7z"/>
<path fill-rule="evenodd" clip-rule="evenodd" fill="#A3A3A3" d="M188,355.6v0.4c0,1.4,1,2.5,2.2,2.4l3.3-0.1c1.2,0,2.2-1.2,2.2-2.5
	v-0.4c0-1.4-1-2.5-2.2-2.4l-3.3,0.1C189,353.1,188,354.3,188,355.6z"/>
<path fill-rule="evenodd" clip-rule="evenodd" fill="#A3A3A3" d="M179.8,368.3v0.4c0,1.4,1,2.5,2.2,2.4l3.3-0.1
	c1.2,0,2.2-1.2,2.2-2.6v-0.4c0-1.4-1-2.5-2.2-2.4l-3.3,0.1C180.8,365.8,179.8,366.9,179.8,368.3z"/>
<path fill-rule="evenodd" clip-rule="evenodd" fill="#A3A3A3" d="M221.4,367v0.4c0,1.4,1,2.5,2.2,2.4l2.6-0.1c1.2,0,2.2-1.2,2.2-2.6
	v-0.4c0-1.4-1-2.5-2.2-2.4l-2.6,0.1C222.4,364.5,221.4,365.7,221.4,367z"/>
<path fill-rule="evenodd" clip-rule="evenodd" fill="#A3A3A3" d="M282.5,328.4v0.4c0,1.4,1,2.5,2.2,2.4l10.2-0.3
	c1.2,0,2.2-1.2,2.2-2.5V328c0-1.4-1-2.5-2.2-2.4l-10.2,0.3C283.5,325.9,282.5,327,282.5,328.4z"/>
<path fill-rule="evenodd" clip-rule="evenodd" fill="#A3A3A3" d="M306.5,327.7v0.4c0,1.4,1,2.5,2.2,2.4l20.9-0.6
	c1.2,0,2.2-1.2,2.2-2.5v-0.4c0-1.4-1-2.5-2.2-2.4l-20.9,0.6C307.4,325.2,306.5,326.3,306.5,327.7z"/>
<path fill-rule="evenodd" clip-rule="evenodd" fill="#A3A3A3" d="M340.5,327v0.4c0,1.4,1,2.5,2.2,2.4l9.5-0.3c1.2,0,2.2-1.2,2.2-2.5
	v-0.4c0-1.4-1-2.5-2.2-2.4l-9.5,0.3C341.4,324.5,340.5,325.6,340.5,327z"/>
<path fill-rule="evenodd" clip-rule="evenodd" fill="#A3A3A3" d="M377.6,325.6v0.4c0,1.4,1,2.5,2.2,2.4l7-0.2c1.2,0,2.2-1.2,2.2-2.6
	v-0.4c0-1.4-1-2.5-2.2-2.4l-7,0.2C378.6,323.1,377.6,324.2,377.6,325.6z"/>
<path fill-rule="evenodd" clip-rule="evenodd" fill="#A3A3A3" d="M358.7,326.4v0.4c0,1.4,1,2.5,2.2,2.4l9.5-0.3
	c1.2,0,2.2-1.2,2.2-2.6V326c0-1.4-1-2.5-2.2-2.4l-9.5,0.3C359.7,323.9,358.7,325.1,358.7,326.4z"/>
<path fill-rule="evenodd" clip-rule="evenodd" fill="#A3A3A3" d="M282.5,340.3v0.4c0,1.4,1,2.5,2.2,2.4l9.5-0.3
	c1.2,0,2.2-1.2,2.2-2.6v-0.4c0-1.4-1-2.5-2.2-2.4l-9.5,0.3C283.5,337.8,282.5,339,282.5,340.3z"/>
<path fill-rule="evenodd" clip-rule="evenodd" fill="#A3A3A3" d="M320.3,339.2v0.4c0,1.4,1,2.5,2.2,2.4l7-0.2c1.2,0,2.2-1.2,2.2-2.6
	v-0.4c0-1.4-1-2.5-2.2-2.4l-7,0.2C321.3,336.7,320.3,337.9,320.3,339.2z"/>
<path fill-rule="evenodd" clip-rule="evenodd" fill="#A3A3A3" d="M335.4,339.1v0.4c0,1.4,1,2.5,2.2,2.4l7.7-0.2
	c1.2,0,2.2-1.2,2.2-2.5v-0.4c0-1.4-1-2.5-2.2-2.4l-7.7,0.2C336.4,336.6,335.4,337.7,335.4,339.1z"/>
<path fill-rule="evenodd" clip-rule="evenodd" fill="#A3A3A3" d="M363.2,338.3v0.4c0,1.4,1,2.5,2.2,2.4l9.5-0.3
	c1.2,0,2.2-1.2,2.2-2.5v-0.4c0-1.4-1-2.5-2.2-2.4l-9.5,0.3C364.1,335.7,363.2,336.9,363.2,338.3z"/>
<path fill-rule="evenodd" clip-rule="evenodd" fill="#A3A3A3" d="M299.5,339.8v0.4c0,1.4,1,2.5,2.2,2.4l10.8-0.3
	c1.2,0,2.2-1.2,2.2-2.5v-0.4c0-1.4-1-2.5-2.2-2.4l-10.8,0.3C300.5,337.3,299.5,338.5,299.5,339.8z"/>
<path fill-rule="evenodd" clip-rule="evenodd" fill="#A3A3A3" d="M282.5,352.6v0.4c0,1.4,1,2.5,2.2,2.4l11.4-0.3
	c1.2,0,2.2-1.2,2.2-2.5v-0.4c0-1.4-1-2.5-2.2-2.4l-11.4,0.3C283.5,350,282.5,351.2,282.5,352.6z"/>
<path fill-rule="evenodd" clip-rule="evenodd" fill="#A3A3A3" d="M317.2,351.5v0.4c0,1.4,1,2.5,2.2,2.4l8.3-0.2
	c1.2,0,2.2-1.2,2.2-2.6v-0.4c0-1.4-1-2.5-2.2-2.4l-8.3,0.2C318.1,349,317.2,350.1,317.2,351.5z"/>
<path fill-rule="evenodd" clip-rule="evenodd" fill="#A3A3A3" d="M340.5,351.1v0.4c0,1.4,1,2.5,2.2,2.4l9.5-0.3
	c1.2,0,2.2-1.2,2.2-2.6v-0.4c0-1.4-1-2.5-2.2-2.4l-9.5,0.3C341.4,348.6,340.5,349.8,340.5,351.1z"/>
<path fill-rule="evenodd" clip-rule="evenodd" fill="#A3A3A3" d="M380.8,349.6v0.4c0,1.4,1,2.5,2.2,2.4l3.9-0.1
	c1.2,0,2.2-1.2,2.2-2.6v-0.4c0-1.4-1-2.5-2.2-2.4l-3.9,0.1C381.8,347.1,380.8,348.3,380.8,349.6z"/>
<path fill-rule="evenodd" clip-rule="evenodd" fill="#A3A3A3" d="M358.7,350.6v0.4c0,1.4,1,2.5,2.2,2.4l3.2-0.1
	c1.2,0,2.2-1.2,2.2-2.6v-0.4c0-1.4-1-2.5-2.2-2.4l-3.2,0.1C359.7,348.1,358.7,349.2,358.7,350.6z"/>
<path fill-rule="evenodd" clip-rule="evenodd" fill="#A3A3A3" d="M282.5,364.5v0.4c0,1.4,1,2.5,2.2,2.4l3.3-0.1
	c1.2,0,2.2-1.2,2.2-2.6v-0.4c0-1.4-1-2.5-2.2-2.4l-3.3,0.1C283.5,362,282.5,363.1,282.5,364.5z"/>
<path fill-rule="evenodd" clip-rule="evenodd" fill="#A3A3A3" d="M320.3,363.4v0.4c0,1.4,1,2.5,2.2,2.4l5.8-0.2
	c1.2,0,2.2-1.2,2.2-2.5v-0.4c0-1.4-1-2.5-2.2-2.4l-5.8,0.2C321.3,360.9,320.3,362,320.3,363.4z"/>
<path fill-rule="evenodd" clip-rule="evenodd" fill="#A3A3A3" d="M344.9,363v0.4c0,1.4,1,2.5,2.2,2.4l5.1-0.2c1.2,0,2.2-1.2,2.2-2.5
	v-0.4c0-1.4-1-2.5-2.2-2.4l-5.1,0.2C345.8,360.4,344.9,361.6,344.9,363z"/>
<path fill-rule="evenodd" clip-rule="evenodd" fill="#A3A3A3" d="M381.4,361.6v0.4c0,1.4,1,2.5,2.2,2.4l3.2-0.1
	c1.2,0,2.2-1.2,2.2-2.5v-0.4c0-1.4-1-2.5-2.2-2.4l-3.2,0.1C382.4,359,381.4,360.2,381.4,361.6z"/>
<path fill-rule="evenodd" clip-rule="evenodd" fill="#A3A3A3" d="M364.4,362.4v0.4c0,1.4,1,2.5,2.2,2.4l8.3-0.3
	c1.2,0,2.2-1.2,2.2-2.5V362c0-1.4-1-2.5-2.2-2.4l-8.3,0.3C365.4,359.9,364.4,361,364.4,362.4z"/>
<path fill-rule="evenodd" clip-rule="evenodd" fill="#A3A3A3" d="M303.3,363.9v0.4c0,1.4,1,2.5,2.2,2.4l7-0.2c1.2,0,2.2-1.2,2.2-2.6
	v-0.4c0-1.4-1-2.5-2.2-2.4l-7,0.2C304.3,361.4,303.3,362.5,303.3,363.9z"/>
<path fill-rule="evenodd" clip-rule="evenodd" fill="#A3A3A3" d="M370.1,350.1v0.4c0,1.4,1,2.5,2.2,2.4l3.2-0.1
	c1.2,0,2.2-1.2,2.2-2.6v-0.4c0-1.4-1-2.5-2.2-2.4l-3.2,0.1C371,347.6,370.1,348.8,370.1,350.1z"/>
<path fill-rule="evenodd" clip-rule="evenodd" fill="#A3A3A3" d="M301.4,351.9v0.4c0,1.4,1,2.5,2.2,2.4l3.2-0.1
	c1.2,0,2.2-1.2,2.2-2.5v-0.4c0-1.4-1-2.5-2.2-2.4l-3.2,0.1C302.4,349.3,301.4,350.5,301.4,351.9z"/>
<path fill-rule="evenodd" clip-rule="evenodd" fill="#A3A3A3" d="M293.2,364.5v0.4c0,1.4,1,2.5,2.2,2.4l3.3-0.1
	c1.2,0,2.2-1.2,2.2-2.5v-0.4c0-1.4-1-2.5-2.2-2.4l-3.3,0.1C294.2,362,293.2,363.1,293.2,364.5z"/>
<path fill-rule="evenodd" clip-rule="evenodd" fill="#A3A3A3" d="M334.8,363.3v0.4c0,1.4,1,2.5,2.2,2.4l2.6-0.1
	c1.2,0,2.2-1.2,2.2-2.6V363c0-1.4-1-2.5-2.2-2.4l-2.6,0.1C335.8,360.7,334.8,361.9,334.8,363.3z"/>
<path fill-rule="evenodd" clip-rule="evenodd" fill="#A3A3A3" d="M265.5,341.3v0.4c0,1.4,1,2.5,2.2,2.4l8.9-0.3
	c1.2,0,2.2-1.2,2.2-2.5v-0.4c0-1.4-1-2.5-2.2-2.4l-8.9,0.3C266.5,338.8,265.5,339.9,265.5,341.3z"/>
<path fill-rule="evenodd" clip-rule="evenodd" fill="#A3A3A3" d="M351.2,338.4v0.4c0,1.4,1,2.5,2.2,2.4l3.3-0.1
	c1.2,0,2.2-1.2,2.2-2.6v-0.4c0-1.4-1-2.5-2.2-2.4l-3.3,0.1C352.1,335.9,351.2,337.1,351.2,338.4z"/>
<polygon fill-rule="evenodd" clip-rule="evenodd" fill="#FFFFFF" points="2.8,400.1 0,399.3 65.5,28.8 68.9,29.5 "/>
<polygon fill-rule="evenodd" clip-rule="evenodd" fill="#FFFFFF" points="111.6,431.4 65.5,29.4 68.9,28.9 115,430.8 "/>
<path fill-rule="evenodd" clip-rule="evenodd" fill="#A3472B" d="M184.6,74.6c2.5,1.5,5.2,2.3,8,2.2c9.4-0.3,16.2-10.1,15.3-22
	c-0.4-4.5-1.7-8.6-3.8-11.9c5.1,2.4,9.9,9.9,10.6,18.8c0.9,11.9-5.9,21.7-15.3,22C193.5,83.9,188.1,80.3,184.6,74.6z"/>
<path fill-rule="evenodd" clip-rule="evenodd" fill="#A3472B" d="M253.2,71.6c2.5,1.5,5.2,2.3,8,2.2c9.4-0.3,16.2-10.1,15.3-22
	c-0.3-4.4-1.7-8.6-3.8-11.9c5,2.4,9.9,9.9,10.6,18.8c0.9,11.9-5.9,21.7-15.3,22C262.1,80.9,256.7,77.3,253.2,71.6z"/>
<path fill-rule="evenodd" clip-rule="evenodd" fill="#A3472B" d="M321.9,70.4c2.5,1.5,5.2,2.3,8,2.2c9.4-0.3,16.2-10.1,15.3-22
	c-0.3-4.5-1.7-8.6-3.8-11.9c5,2.4,9.9,9.9,10.6,18.8c0.9,11.9-5.9,21.7-15.3,22C330.8,79.6,325.4,76,321.9,70.4z"/>
<path fill-rule="evenodd" clip-rule="evenodd" fill="#A3472B" d="M390.5,68.3c2.5,1.5,5.2,2.3,8,2.2c9.4-0.3,16.2-10.1,15.3-22
	c-0.4-4.5-1.7-8.6-3.8-11.9c5.1,2.4,9.9,9.9,10.6,18.8c0.9,11.9-5.9,21.7-15.3,22C399.4,77.6,394,74,390.5,68.3z"/>
<polygon fill-rule="evenodd" clip-rule="evenodd" fill="#EBEBEB" points="162.9,394.2 162.3,388.5 460.2,378 460.8,383.3 "/>
<g>
	
		<radialGradient id="SVGID_4_" cx="122.5503" cy="34.4702" r="45.5603" gradientTransform="matrix(0.865 0 0 1 0 0)" gradientUnits="userSpaceOnUse">
		<stop  offset="0" style="stop-color:#FFFFFF"/>
		<stop  offset="0.49" style="stop-color:#EBEBEB"/>
		<stop  offset="0.71" style="stop-color:#EEEDED"/>
		<stop  offset="0.8" style="stop-color:#F5F5F5"/>
		<stop  offset="0.87" style="stop-color:#D9D9D9"/>
		<stop  offset="0.93" style="stop-color:#CDCCCC"/>
		<stop  offset="1" style="stop-color:#DEDEDE"/>
	</radialGradient>
	<path fill-rule="evenodd" clip-rule="evenodd" fill="url(#SVGID_4_)" d="M127.9,59.8c-1.3-0.6-2.6-1.9-3.7-3.7
		c0-1.5,0.1-2.9,0.4-4.1c0.8,1.6,1.8,2.5,2.9,2.5c3.3,0,5.9-9,5.9-20c0-11-2.6-20-5.9-20c-3.3,0-5.9,9-5.9,20c0,0.1,0,0.3,0,0.4
		l-1.8,0.1c0-0.1,0-0.2,0-0.3c0-13.8,3.3-22.7,8.1-25c1.7-1.1,9.3-1.2,11.1,0c4,2.1,8.1,10.7,8.1,24.5c0,13.8-3.5,21.8-8.1,25.1
		C136,61.2,130.9,61,127.9,59.8z"/>
	
		<radialGradient id="SVGID_5_" cx="179.2701" cy="33.8707" r="38.811" gradientTransform="matrix(0.865 0 0 1 0 0)" gradientUnits="userSpaceOnUse">
		<stop  offset="0" style="stop-color:#FFFFFF"/>
		<stop  offset="0.73" style="stop-color:#343434"/>
		<stop  offset="1" style="stop-color:#CAC9C9"/>
	</radialGradient>
	<path fill-rule="evenodd" clip-rule="evenodd" fill="url(#SVGID_5_)" d="M124.6,52c1-4,3.5-6.6,6.8-7.4c0.2,0.9,0.4,1.8,0.6,2.6
		c-1.1,4.5-2.7,7.3-4.5,7.3C126.4,54.6,125.4,53.7,124.6,52z M121.6,34.6c0-11,2.6-20,5.9-20c1.7,0,3.3,2.6,4.4,6.8
		c-0.8,3.4-1.3,7.9-1.3,12.7c0,0.2,0,0.4,0,0.7l-9,0.3C121.6,34.9,121.6,34.7,121.6,34.6z"/>
</g>
<g>
	
		<radialGradient id="SVGID_6_" cx="108" cy="34.7398" r="45.5603" gradientTransform="matrix(0.865 0 0 1 0 0)" gradientUnits="userSpaceOnUse">
		<stop  offset="0" style="stop-color:#FFFFFF"/>
		<stop  offset="0.49" style="stop-color:#EBEBEB"/>
		<stop  offset="0.71" style="stop-color:#EEEDED"/>
		<stop  offset="0.8" style="stop-color:#F5F5F5"/>
		<stop  offset="0.87" style="stop-color:#D9D9D9"/>
		<stop  offset="0.93" style="stop-color:#CDCCCC"/>
		<stop  offset="1" style="stop-color:#DEDEDE"/>
	</radialGradient>
	<path fill-rule="evenodd" clip-rule="evenodd" fill="url(#SVGID_6_)" d="M115.3,60.1c-1.2-0.5-2.2-1.5-3.2-3
		c0.2-1.3,0.4-2.5,0.7-3.6c0.7,0.9,1.4,1.4,2.1,1.4c3.3,0,5.9-9,5.9-20c0-11-2.6-20-5.9-20c-2.6,0-4.8,5.6-5.6,13.5l-1.8,0
		c0.9-10,3.8-16.5,7.8-18.4c1.7-1.1,9.3-1.2,11.1,0c4,2.1,8.1,10.7,8.1,24.5c0,13.8-3.5,21.8-8.1,25.1
		C123.4,61.5,118.3,61.2,115.3,60.1z"/>
	
		<radialGradient id="SVGID_7_" cx="164.73" cy="34.1402" r="38.811" gradientTransform="matrix(0.865 0 0 1 0 0)" gradientUnits="userSpaceOnUse">
		<stop  offset="0" style="stop-color:#FFFFFF"/>
		<stop  offset="0.73" style="stop-color:#343434"/>
		<stop  offset="1" style="stop-color:#CAC9C9"/>
	</radialGradient>
	<path fill-rule="evenodd" clip-rule="evenodd" fill="url(#SVGID_7_)" d="M112.7,53.5c1-3.7,2.8-6.7,5.8-8.5c0.1,0,0.2,0,0.3-0.1
		c0.2,0.9,0.4,1.8,0.6,2.6c-1.1,4.5-2.7,7.3-4.5,7.3C114.1,54.9,113.4,54.4,112.7,53.5z M114.9,14.9c1.8,0,3.3,2.6,4.4,6.7
		c-0.5,1.9-0.8,4.1-1.1,6.5l-8.9,0.3C110.1,20.5,112.3,14.9,114.9,14.9z"/>
</g>
<g>
	
		<radialGradient id="SVGID_8_" cx="202.5904" cy="32.3101" r="45.5603" gradientTransform="matrix(0.865 0 0 1 0 0)" gradientUnits="userSpaceOnUse">
		<stop  offset="0" style="stop-color:#FFFFFF"/>
		<stop  offset="0.49" style="stop-color:#EBEBEB"/>
		<stop  offset="0.71" style="stop-color:#EEEDED"/>
		<stop  offset="0.8" style="stop-color:#F5F5F5"/>
		<stop  offset="0.87" style="stop-color:#D9D9D9"/>
		<stop  offset="0.93" style="stop-color:#CDCCCC"/>
		<stop  offset="1" style="stop-color:#DEDEDE"/>
	</radialGradient>
	<path fill-rule="evenodd" clip-rule="evenodd" fill="url(#SVGID_8_)" d="M197.1,57.7c-1.3-0.6-2.6-1.9-3.7-3.7
		c0-1.5,0.1-2.9,0.4-4.1c0.8,1.6,1.8,2.5,2.9,2.5c3.3,0,5.9-9,5.9-20c0-11-2.6-20-5.9-20c-3.3,0-5.9,9-5.9,20c0,0.1,0,0.3,0,0.4
		l-1.8,0.1c0-0.1,0-0.2,0-0.3c0-13.8,3.3-22.7,8.1-25c1.7-1.1,9.3-1.2,11.1,0c4,2.1,8.1,10.7,8.1,24.5c0,13.8-3.5,21.8-8.1,25.1
		C205.2,59,200.1,58.8,197.1,57.7z"/>
	
		<radialGradient id="SVGID_9_" cx="259.3101" cy="31.7105" r="38.811" gradientTransform="matrix(0.865 0 0 1 0 0)" gradientUnits="userSpaceOnUse">
		<stop  offset="0" style="stop-color:#FFFFFF"/>
		<stop  offset="0.73" style="stop-color:#343434"/>
		<stop  offset="1" style="stop-color:#CAC9C9"/>
	</radialGradient>
	<path fill-rule="evenodd" clip-rule="evenodd" fill="url(#SVGID_9_)" d="M193.8,49.9c1-4,3.5-6.5,6.8-7.4c0.2,0.9,0.4,1.8,0.6,2.6
		c-1.1,4.5-2.7,7.3-4.5,7.3C195.7,52.4,194.7,51.5,193.8,49.9z M190.8,32.4c0-11,2.6-20,5.9-20c1.7,0,3.3,2.6,4.4,6.8
		c-0.8,3.5-1.3,7.9-1.3,12.7c0,0.2,0,0.5,0,0.7l-9,0.3C190.8,32.7,190.8,32.6,190.8,32.4z"/>
</g>
<g>
	
		<radialGradient id="SVGID_10_" cx="188.0401" cy="32.5807" r="45.5603" gradientTransform="matrix(0.865 0 0 1 0 0)" gradientUnits="userSpaceOnUse">
		<stop  offset="0" style="stop-color:#FFFFFF"/>
		<stop  offset="0.49" style="stop-color:#EBEBEB"/>
		<stop  offset="0.71" style="stop-color:#EEEDED"/>
		<stop  offset="0.8" style="stop-color:#F5F5F5"/>
		<stop  offset="0.87" style="stop-color:#D9D9D9"/>
		<stop  offset="0.93" style="stop-color:#CDCCCC"/>
		<stop  offset="1" style="stop-color:#DEDEDE"/>
	</radialGradient>
	<path fill-rule="evenodd" clip-rule="evenodd" fill="url(#SVGID_10_)" d="M184.5,57.9c-1.2-0.5-2.2-1.5-3.2-3
		c0.2-1.3,0.4-2.5,0.7-3.6c0.7,0.9,1.4,1.4,2.1,1.4c3.3,0,5.9-9,5.9-20c0-11.1-2.6-20-5.9-20c-2.6,0-4.8,5.6-5.6,13.5l-1.8,0
		c0.9-10,3.8-16.5,7.8-18.4c1.7-1.1,9.3-1.2,11.1,0c4,2.1,8.1,10.7,8.1,24.5c0,13.8-3.5,21.8-8.1,25.1
		C192.6,59.3,187.5,59.1,184.5,57.9z"/>
	
		<radialGradient id="SVGID_11_" cx="244.7701" cy="31.9801" r="38.811" gradientTransform="matrix(0.865 0 0 1 0 0)" gradientUnits="userSpaceOnUse">
		<stop  offset="0" style="stop-color:#FFFFFF"/>
		<stop  offset="0.73" style="stop-color:#343434"/>
		<stop  offset="1" style="stop-color:#CAC9C9"/>
	</radialGradient>
	<path fill-rule="evenodd" clip-rule="evenodd" fill="url(#SVGID_11_)" d="M182,51.3c1-3.7,2.8-6.7,5.8-8.5c0.1,0,0.2-0.1,0.3-0.1
		c0.2,0.9,0.4,1.8,0.6,2.6c-1.1,4.4-2.7,7.3-4.5,7.3C183.4,52.7,182.6,52.2,182,51.3z M184.1,12.7c1.8,0,3.3,2.6,4.4,6.7
		c-0.5,1.9-0.8,4.1-1.1,6.5l-8.9,0.3C179.3,18.3,181.5,12.7,184.1,12.7z"/>
</g>
<g>
	
		<radialGradient id="SVGID_12_" cx="281.6402" cy="30.3599" r="45.5603" gradientTransform="matrix(0.865 0 0 1 0 0)" gradientUnits="userSpaceOnUse">
		<stop  offset="0" style="stop-color:#FFFFFF"/>
		<stop  offset="0.49" style="stop-color:#EBEBEB"/>
		<stop  offset="0.71" style="stop-color:#EEEDED"/>
		<stop  offset="0.8" style="stop-color:#F5F5F5"/>
		<stop  offset="0.87" style="stop-color:#D9D9D9"/>
		<stop  offset="0.93" style="stop-color:#CDCCCC"/>
		<stop  offset="1" style="stop-color:#DEDEDE"/>
	</radialGradient>
	<path fill-rule="evenodd" clip-rule="evenodd" fill="url(#SVGID_12_)" d="M265.5,55.7c-1.3-0.6-2.6-1.9-3.7-3.7
		c0-1.5,0.1-2.9,0.4-4.1c0.8,1.6,1.8,2.5,2.9,2.5c3.3,0,5.9-9,5.9-20c0-11-2.6-20-5.9-20c-3.3,0-5.9,9-5.9,20c0,0.1,0,0.3,0,0.4
		l-1.8,0.1c0-0.1,0-0.2,0-0.3c0-13.8,3.3-22.7,8.1-25c1.6-1.1,9.3-1.2,11.1,0c4,2.1,8.1,10.7,8.1,24.5c0,13.8-3.5,21.8-8.1,25.1
		C273.6,57.1,268.5,56.9,265.5,55.7z"/>
	
		<radialGradient id="SVGID_13_" cx="338.3604" cy="29.7602" r="38.811" gradientTransform="matrix(0.865 0 0 1 0 0)" gradientUnits="userSpaceOnUse">
		<stop  offset="0" style="stop-color:#FFFFFF"/>
		<stop  offset="0.73" style="stop-color:#343434"/>
		<stop  offset="1" style="stop-color:#CAC9C9"/>
	</radialGradient>
	<path fill-rule="evenodd" clip-rule="evenodd" fill="url(#SVGID_13_)" d="M262.2,47.9c1-4,3.5-6.5,6.8-7.4c0.2,0.9,0.4,1.8,0.6,2.6
		c-1.1,4.5-2.7,7.3-4.5,7.3C264,50.5,263.1,49.6,262.2,47.9z M259.2,30.5c0-11,2.6-20,5.9-20c1.7,0,3.3,2.6,4.4,6.8
		c-0.8,3.5-1.3,7.9-1.3,12.7c0,0.2,0,0.5,0,0.7l-9,0.3C259.2,30.8,259.2,30.6,259.2,30.5z"/>
</g>
<g>
	
		<radialGradient id="SVGID_14_" cx="267.0904" cy="30.6305" r="45.5603" gradientTransform="matrix(0.865 0 0 1 0 0)" gradientUnits="userSpaceOnUse">
		<stop  offset="0" style="stop-color:#FFFFFF"/>
		<stop  offset="0.49" style="stop-color:#EBEBEB"/>
		<stop  offset="0.71" style="stop-color:#EEEDED"/>
		<stop  offset="0.8" style="stop-color:#F5F5F5"/>
		<stop  offset="0.87" style="stop-color:#D9D9D9"/>
		<stop  offset="0.93" style="stop-color:#CDCCCC"/>
		<stop  offset="1" style="stop-color:#DEDEDE"/>
	</radialGradient>
	<path fill-rule="evenodd" clip-rule="evenodd" fill="url(#SVGID_14_)" d="M252.9,56c-1.2-0.5-2.2-1.5-3.2-3
		c0.2-1.3,0.4-2.5,0.7-3.6c0.7,0.9,1.4,1.4,2.1,1.4c3.3,0,5.9-9,5.9-20c0-11-2.6-20-5.9-20c-2.6,0-4.8,5.6-5.6,13.5l-1.8,0
		c0.9-10,3.8-16.5,7.8-18.4c1.7-1.1,9.3-1.2,11.1,0c4,2.1,8.1,10.7,8.1,24.5c0,13.8-3.5,21.8-8.1,25.1C261,57.3,255.9,57.1,252.9,56
		z"/>
	
		<radialGradient id="SVGID_15_" cx="323.8101" cy="30.0299" r="38.811" gradientTransform="matrix(0.865 0 0 1 0 0)" gradientUnits="userSpaceOnUse">
		<stop  offset="0" style="stop-color:#FFFFFF"/>
		<stop  offset="0.73" style="stop-color:#343434"/>
		<stop  offset="1" style="stop-color:#CAC9C9"/>
	</radialGradient>
	<path fill-rule="evenodd" clip-rule="evenodd" fill="url(#SVGID_15_)" d="M250.4,49.4c1-3.7,2.8-6.7,5.8-8.5c0.1,0,0.2,0,0.3-0.1
		c0.2,0.9,0.4,1.8,0.6,2.6c-1.1,4.5-2.7,7.3-4.5,7.3C251.7,50.8,251,50.3,250.4,49.4z M252.5,10.7c1.7,0,3.3,2.6,4.4,6.8
		c-0.5,1.9-0.8,4.1-1,6.5l-8.9,0.3C247.7,16.4,249.9,10.7,252.5,10.7z"/>
</g>
<g>
	
		<radialGradient id="SVGID_16_" cx="361.4302" cy="27.7301" r="45.5603" gradientTransform="matrix(0.865 0 0 1 0 0)" gradientUnits="userSpaceOnUse">
		<stop  offset="0" style="stop-color:#FFFFFF"/>
		<stop  offset="0.49" style="stop-color:#EBEBEB"/>
		<stop  offset="0.71" style="stop-color:#EEEDED"/>
		<stop  offset="0.8" style="stop-color:#F5F5F5"/>
		<stop  offset="0.87" style="stop-color:#D9D9D9"/>
		<stop  offset="0.93" style="stop-color:#CDCCCC"/>
		<stop  offset="1" style="stop-color:#DEDEDE"/>
	</radialGradient>
	<path fill-rule="evenodd" clip-rule="evenodd" fill="url(#SVGID_16_)" d="M334.5,53.1c-1.3-0.6-2.6-1.9-3.7-3.7
		c0-1.5,0.1-2.9,0.4-4.1c0.8,1.6,1.8,2.6,2.9,2.6c3.2,0,5.9-9,5.9-20c0-11-2.6-20-5.9-20c-3.3,0-5.9,9-5.9,20c0,0.1,0,0.3,0,0.4
		l-1.8,0.1c0-0.1,0-0.2,0-0.3c0-13.8,3.3-22.7,8.1-25.1c1.7-1.1,9.3-1.2,11.1,0c4,2.1,8.1,10.7,8.1,24.5c0,13.8-3.5,21.8-8.1,25.1
		C342.6,54.5,337.5,54.2,334.5,53.1z"/>
	
		<radialGradient id="SVGID_17_" cx="418.1602" cy="27.1305" r="38.811" gradientTransform="matrix(0.865 0 0 1 0 0)" gradientUnits="userSpaceOnUse">
		<stop  offset="0" style="stop-color:#FFFFFF"/>
		<stop  offset="0.73" style="stop-color:#343434"/>
		<stop  offset="1" style="stop-color:#CAC9C9"/>
	</radialGradient>
	<path fill-rule="evenodd" clip-rule="evenodd" fill="url(#SVGID_17_)" d="M331.2,45.3c1-4,3.5-6.5,6.8-7.3c0.2,0.9,0.4,1.8,0.6,2.6
		c-1.1,4.5-2.7,7.3-4.5,7.3C333.1,47.9,332.1,46.9,331.2,45.3z M328.2,27.9c0-11,2.6-20,5.9-20c1.7,0,3.3,2.6,4.4,6.7
		c-0.8,3.5-1.3,7.9-1.3,12.7c0,0.2,0,0.5,0,0.7l-9,0.3C328.2,28.1,328.2,28,328.2,27.9z"/>
</g>
<g>
	
		<radialGradient id="SVGID_18_" cx="346.8902" cy="28.0006" r="45.5603" gradientTransform="matrix(0.865 0 0 1 0 0)" gradientUnits="userSpaceOnUse">
		<stop  offset="0" style="stop-color:#FFFFFF"/>
		<stop  offset="0.49" style="stop-color:#EBEBEB"/>
		<stop  offset="0.71" style="stop-color:#EEEDED"/>
		<stop  offset="0.8" style="stop-color:#F5F5F5"/>
		<stop  offset="0.87" style="stop-color:#D9D9D9"/>
		<stop  offset="0.93" style="stop-color:#CDCCCC"/>
		<stop  offset="1" style="stop-color:#DEDEDE"/>
	</radialGradient>
	<path fill-rule="evenodd" clip-rule="evenodd" fill="url(#SVGID_18_)" d="M321.9,53.4c-1.2-0.5-2.2-1.5-3.2-3
		c0.2-1.3,0.4-2.5,0.7-3.6c0.7,0.9,1.4,1.4,2.1,1.4c3.3,0,5.9-9,5.9-20s-2.6-20-5.9-20c-2.6,0-4.8,5.6-5.6,13.5l-1.8,0
		c0.9-10,3.8-16.5,7.8-18.4c1.6-1.1,9.3-1.1,11.1,0c4,2.1,8.1,10.7,8.1,24.5c0,13.8-3.5,21.8-8.1,25.1
		C330,54.7,324.9,54.5,321.9,53.4z"/>
	
		<radialGradient id="SVGID_19_" cx="403.6104" cy="27.4" r="38.811" gradientTransform="matrix(0.865 0 0 1 0 0)" gradientUnits="userSpaceOnUse">
		<stop  offset="0" style="stop-color:#FFFFFF"/>
		<stop  offset="0.73" style="stop-color:#343434"/>
		<stop  offset="1" style="stop-color:#CAC9C9"/>
	</radialGradient>
	<path fill-rule="evenodd" clip-rule="evenodd" fill="url(#SVGID_19_)" d="M319.4,46.8c1-3.7,2.8-6.7,5.8-8.5c0.1,0,0.2-0.1,0.3-0.1
		c0.2,0.9,0.4,1.8,0.6,2.6c-1.1,4.5-2.7,7.3-4.5,7.3C320.8,48.1,320,47.6,319.4,46.8z M321.5,8.1c1.7,0,3.3,2.6,4.4,6.7
		c-0.5,1.9-0.8,4.1-1,6.5l-8.9,0.2C316.8,13.8,318.9,8.1,321.5,8.1z"/>
</g>
<g>
	
		<radialGradient id="SVGID_20_" cx="440.7203" cy="25.6002" r="45.5603" gradientTransform="matrix(0.865 0 0 1 0 0)" gradientUnits="userSpaceOnUse">
		<stop  offset="0" style="stop-color:#FFFFFF"/>
		<stop  offset="0.49" style="stop-color:#EBEBEB"/>
		<stop  offset="0.71" style="stop-color:#EEEDED"/>
		<stop  offset="0.8" style="stop-color:#F5F5F5"/>
		<stop  offset="0.87" style="stop-color:#D9D9D9"/>
		<stop  offset="0.93" style="stop-color:#CDCCCC"/>
		<stop  offset="1" style="stop-color:#DEDEDE"/>
	</radialGradient>
	<path fill-rule="evenodd" clip-rule="evenodd" fill="url(#SVGID_20_)" d="M403.1,51c-1.3-0.6-2.6-1.9-3.7-3.7
		c0-1.5,0.1-2.9,0.4-4.1c0.8,1.6,1.8,2.5,2.9,2.5c3.2,0,5.9-9,5.9-20c0-11-2.6-20-5.9-20c-3.3,0-5.9,9-5.9,20c0,0.1,0,0.3,0,0.4
		l-1.8,0.1c0-0.1,0-0.2,0-0.3c0-13.8,3.3-22.7,8.1-25c1.7-1.1,9.3-1.2,11.1,0c4,2.1,8.1,10.7,8.1,24.5s-3.5,21.8-8.1,25
		C411.2,52.3,406.1,52.1,403.1,51z"/>
	
		<radialGradient id="SVGID_21_" cx="497.4502" cy="24.9898" r="38.811" gradientTransform="matrix(0.865 0 0 1 0 0)" gradientUnits="userSpaceOnUse">
		<stop  offset="0" style="stop-color:#FFFFFF"/>
		<stop  offset="0.73" style="stop-color:#343434"/>
		<stop  offset="1" style="stop-color:#CAC9C9"/>
	</radialGradient>
	<path fill-rule="evenodd" clip-rule="evenodd" fill="url(#SVGID_21_)" d="M399.8,43.2c1-4,3.5-6.5,6.8-7.4c0.2,0.9,0.4,1.8,0.6,2.6
		c-1.1,4.5-2.7,7.3-4.5,7.3C401.7,45.7,400.7,44.8,399.8,43.2z M396.8,25.7c0-11,2.6-20,5.9-20c1.7,0,3.3,2.6,4.4,6.7
		c-0.8,3.5-1.3,7.9-1.3,12.7c0,0.2,0,0.5,0,0.7l-9,0.3C396.8,26,396.8,25.9,396.8,25.7z"/>
</g>
<g>
	
		<radialGradient id="SVGID_22_" cx="426.1802" cy="25.8707" r="45.5603" gradientTransform="matrix(0.865 0 0 1 0 0)" gradientUnits="userSpaceOnUse">
		<stop  offset="0" style="stop-color:#FFFFFF"/>
		<stop  offset="0.49" style="stop-color:#EBEBEB"/>
		<stop  offset="0.71" style="stop-color:#EEEDED"/>
		<stop  offset="0.8" style="stop-color:#F5F5F5"/>
		<stop  offset="0.87" style="stop-color:#D9D9D9"/>
		<stop  offset="0.93" style="stop-color:#CDCCCC"/>
		<stop  offset="1" style="stop-color:#DEDEDE"/>
	</radialGradient>
	<path fill-rule="evenodd" clip-rule="evenodd" fill="url(#SVGID_22_)" d="M390.5,51.2c-1.2-0.5-2.2-1.5-3.2-3
		c0.2-1.3,0.4-2.5,0.7-3.6c0.7,0.9,1.4,1.4,2.1,1.4c3.3,0,5.9-9,5.9-20c0-11-2.6-20-5.9-20c-2.6,0-4.8,5.6-5.6,13.5l-1.8,0
		c0.9-10,3.8-16.5,7.8-18.4c1.6-1.1,9.3-1.2,11.1,0c4,2.1,8.1,10.7,8.1,24.5s-3.5,21.8-8.1,25C398.6,52.6,393.5,52.4,390.5,51.2z"/>
	
		<radialGradient id="SVGID_23_" cx="482.9004" cy="25.2602" r="38.811" gradientTransform="matrix(0.865 0 0 1 0 0)" gradientUnits="userSpaceOnUse">
		<stop  offset="0" style="stop-color:#FFFFFF"/>
		<stop  offset="0.73" style="stop-color:#343434"/>
		<stop  offset="1" style="stop-color:#CAC9C9"/>
	</radialGradient>
	<path fill-rule="evenodd" clip-rule="evenodd" fill="url(#SVGID_23_)" d="M388,44.6c1-3.7,2.8-6.7,5.8-8.5c0.1,0,0.2,0,0.3-0.1
		c0.2,0.9,0.4,1.8,0.6,2.6c-1.1,4.4-2.7,7.3-4.5,7.3C389.4,46,388.6,45.5,388,44.6z M390.1,6c1.7,0,3.3,2.6,4.4,6.7
		c-0.5,1.9-0.8,4.1-1,6.5l-8.9,0.2C385.3,11.6,387.5,6,390.1,6z"/>
</g>
<text transform="matrix(0.8648 -2.618065e-002 2.265000e-002 0.9997 147.1113 167.0555)" fill="#737373" font-family="'Tahoma-Bold'" font-size="59.1257">PROSINEC</text>
<text transform="matrix(0.8646 -3.490701e-002 3.019000e-002 0.9995 234.0099 290.3663)" fill="#737373" font-family="'Arial-BoldMT'" font-size="99.9846">24.</text>
</svg>
